<svg xmlns="http://www.w3.org/2000/svg" xmlns:xlink="http://www.w3.org/1999/xlink" viewBox="0 0 2746.45 2753.41"><defs><style>.cls-1,.cls-80{opacity:0.3;}.cls-1{fill:url(#linear-gradient);}.cls-2{fill:url(#linear-gradient-2);}.cls-3,.cls-5{fill:#fff;}.cls-3{opacity:0.57;}.cls-4{opacity:0.5;}.cls-6{fill:url(#linear-gradient-3);}.cls-7{fill:url(#linear-gradient-4);}.cls-8{fill:url(#linear-gradient-5);}.cls-9{fill:url(#linear-gradient-6);}.cls-10{fill:url(#linear-gradient-7);}.cls-11{fill:url(#linear-gradient-8);}.cls-12{fill:url(#linear-gradient-9);}.cls-13{fill:url(#linear-gradient-10);}.cls-14{fill:url(#linear-gradient-11);}.cls-15{fill:url(#linear-gradient-12);}.cls-16{fill:url(#linear-gradient-13);}.cls-17{fill:url(#linear-gradient-14);}.cls-18{fill:url(#linear-gradient-15);}.cls-19{fill:url(#linear-gradient-16);}.cls-20{fill:url(#linear-gradient-17);}.cls-21{fill:url(#linear-gradient-18);}.cls-22{fill:url(#linear-gradient-19);}.cls-23{fill:url(#linear-gradient-20);}.cls-24{fill:url(#linear-gradient-21);}.cls-25{fill:url(#linear-gradient-22);}.cls-26{fill:url(#linear-gradient-23);}.cls-27{fill:url(#linear-gradient-24);}.cls-28{fill:url(#linear-gradient-25);}.cls-29{fill:url(#linear-gradient-26);}.cls-30{fill:url(#linear-gradient-27);}.cls-31{fill:url(#linear-gradient-28);}.cls-32{fill:url(#linear-gradient-29);}.cls-33{fill:url(#linear-gradient-30);}.cls-34{fill:url(#linear-gradient-31);}.cls-35{fill:url(#linear-gradient-32);}.cls-36{fill:url(#linear-gradient-33);}.cls-37{fill:url(#linear-gradient-34);}.cls-38{fill:url(#linear-gradient-35);}.cls-39{fill:url(#linear-gradient-36);}.cls-40{fill:url(#linear-gradient-37);}.cls-41{fill:url(#linear-gradient-38);}.cls-42{fill:url(#linear-gradient-39);}.cls-43{fill:url(#linear-gradient-40);}.cls-44{fill:url(#linear-gradient-41);}.cls-45{fill:url(#linear-gradient-42);}.cls-46{fill:url(#linear-gradient-43);}.cls-47{fill:url(#linear-gradient-44);}.cls-48{fill:url(#linear-gradient-45);}.cls-49{fill:url(#linear-gradient-46);}.cls-50{fill:url(#linear-gradient-47);}.cls-51{fill:url(#linear-gradient-48);}.cls-52{fill:url(#linear-gradient-49);}.cls-53{fill:url(#linear-gradient-50);}.cls-54{fill:url(#linear-gradient-51);}.cls-55{fill:url(#linear-gradient-52);}.cls-56{fill:url(#linear-gradient-53);}.cls-57{fill:url(#linear-gradient-54);}.cls-58{fill:url(#linear-gradient-55);}.cls-59{fill:url(#linear-gradient-56);}.cls-60{fill:url(#linear-gradient-57);}.cls-61{fill:url(#linear-gradient-58);}.cls-62{fill:url(#linear-gradient-59);}.cls-63{fill:url(#linear-gradient-60);}.cls-64{fill:url(#linear-gradient-61);}.cls-65{fill:url(#linear-gradient-62);}.cls-66{fill:url(#linear-gradient-63);}.cls-67{fill:url(#linear-gradient-64);}.cls-68{fill:url(#linear-gradient-65);}.cls-69{fill:url(#linear-gradient-66);}.cls-70{fill:url(#linear-gradient-67);}.cls-71{fill:url(#linear-gradient-68);}.cls-72{fill:url(#linear-gradient-69);}.cls-73{fill:url(#linear-gradient-70);}.cls-74{fill:url(#linear-gradient-71);}.cls-75{fill:url(#linear-gradient-72);}.cls-76{fill:url(#linear-gradient-73);}.cls-77{fill:url(#linear-gradient-74);}.cls-78{fill:url(#linear-gradient-75);}.cls-79{fill:url(#linear-gradient-76);}.cls-80{fill:url(#linear-gradient-77);}.cls-81{fill:url(#linear-gradient-78);}.cls-82{fill:url(#linear-gradient-79);}.cls-83{fill:url(#linear-gradient-80);}.cls-84{fill:url(#linear-gradient-81);}.cls-85{opacity:0.4;fill:url(#linear-gradient-82);}.cls-86{fill:url(#linear-gradient-83);}.cls-87{fill:url(#linear-gradient-84);}.cls-100,.cls-101,.cls-102,.cls-103,.cls-88,.cls-89,.cls-90,.cls-91,.cls-92,.cls-93,.cls-94,.cls-95,.cls-96,.cls-97,.cls-98,.cls-99{fill-rule:evenodd;}.cls-88{fill:url(#linear-gradient-85);}.cls-89{fill:url(#linear-gradient-86);}.cls-90{fill:url(#linear-gradient-87);}.cls-91{fill:url(#linear-gradient-88);}.cls-92{fill:url(#linear-gradient-89);}.cls-93{fill:url(#linear-gradient-90);}.cls-94{fill:url(#linear-gradient-91);}.cls-95{fill:url(#linear-gradient-92);}.cls-96{fill:url(#linear-gradient-93);}.cls-97{fill:url(#linear-gradient-94);}.cls-98{fill:url(#linear-gradient-95);}.cls-99{fill:url(#linear-gradient-96);}.cls-100{fill:url(#linear-gradient-97);}.cls-101{fill:url(#linear-gradient-98);}.cls-102{fill:url(#linear-gradient-99);}.cls-103{fill:url(#linear-gradient-100);}</style><linearGradient id="linear-gradient" x1="3393.12" y1="3567.58" x2="1369.77" y2="1383.65" gradientUnits="userSpaceOnUse"><stop offset="0" stop-color="#b37cff"/><stop offset="1" stop-color="#f895e7"/></linearGradient><linearGradient id="linear-gradient-2" x1="639.75" y1="2895.41" x2="1552.86" y2="1450.06" xlink:href="#linear-gradient"/><linearGradient id="linear-gradient-3" x1="2153.12" y1="3300.14" x2="24.06" y2="2303.97" gradientUnits="userSpaceOnUse"><stop offset="0" stop-color="#a737d5"/><stop offset="1" stop-color="#ef497a"/></linearGradient><linearGradient id="linear-gradient-4" x1="-6024.78" y1="3455.34" x2="-5624.72" y2="1813.45" gradientTransform="matrix(-1, 0.04, 0.04, 1, -3080.23, -246.06)" xlink:href="#linear-gradient-3"/><linearGradient id="linear-gradient-5" x1="4439.32" y1="47.34" x2="1874.02" y2="3393.95" gradientUnits="userSpaceOnUse"><stop offset="0" stop-color="#cb236d"/><stop offset="1" stop-color="#4c246d"/></linearGradient><linearGradient id="linear-gradient-6" x1="-4835.57" y1="5137.19" x2="-4673.62" y2="3895.55" gradientTransform="matrix(-0.95, 0.33, 0.33, 0.95, -3358.04, -375.72)" xlink:href="#linear-gradient"/><linearGradient id="linear-gradient-7" x1="3238.16" y1="963.95" x2="1310.93" y2="3945.95" xlink:href="#linear-gradient-3"/><linearGradient id="linear-gradient-8" x1="1456.86" y1="2206.63" x2="1289.24" y2="2963.1" gradientUnits="userSpaceOnUse"><stop offset="0" stop-color="#2b3582"/><stop offset="1" stop-color="#150e42"/></linearGradient><linearGradient id="linear-gradient-9" x1="1457.21" y1="2306.89" x2="1298.82" y2="3021.69" xlink:href="#linear-gradient-8"/><linearGradient id="linear-gradient-10" x1="1443.3" y1="2302.62" x2="1309.42" y2="2906.82" gradientUnits="userSpaceOnUse"><stop offset="0" stop-color="#2c50ff"/><stop offset="1" stop-color="#1a1b80"/></linearGradient><linearGradient id="linear-gradient-11" x1="1915.27" y1="2639.97" x2="1803.97" y2="3142.26" xlink:href="#linear-gradient-10"/><linearGradient id="linear-gradient-12" x1="1155.28" y1="2955.22" x2="1572.87" y2="2345.94" gradientTransform="translate(997.08 -1302.52) rotate(-8.92)" gradientUnits="userSpaceOnUse"><stop offset="0" stop-color="#e92556"/><stop offset="1" stop-color="#f9c342"/></linearGradient><linearGradient id="linear-gradient-13" x1="1424.61" y1="2304.66" x2="1541.28" y2="2134.43" gradientTransform="matrix(0.59, -0.81, 0.81, 0.59, 21.2, 657.05)" xlink:href="#linear-gradient-12"/><linearGradient id="linear-gradient-14" x1="1424.64" y1="2840.99" x2="1541.31" y2="2670.77" gradientTransform="matrix(0.59, -0.81, 0.81, 0.59, 21.2, 657.05)" xlink:href="#linear-gradient-12"/><linearGradient id="linear-gradient-15" x1="4256.74" y1="-1655.03" x2="4373.41" y2="-1825.25" gradientTransform="matrix(0.81, 0.59, -0.59, 0.81, -1547.68, -474.94)" xlink:href="#linear-gradient-12"/><linearGradient id="linear-gradient-16" x1="4256.76" y1="-1115.5" x2="4373.43" y2="-1285.72" gradientTransform="matrix(0.81, 0.59, -0.59, 0.81, -1547.68, -474.94)" xlink:href="#linear-gradient-12"/><linearGradient id="linear-gradient-17" x1="1548.41" y1="2362.1" x2="1681.35" y2="2168.13" gradientTransform="matrix(0.59, -0.81, 0.81, 0.59, 21.2, 657.05)" xlink:href="#linear-gradient-12"/><linearGradient id="linear-gradient-18" x1="1269.35" y1="2822.54" x2="1402.29" y2="2628.57" gradientTransform="matrix(0.59, -0.81, 0.81, 0.59, 21.2, 657.05)" xlink:href="#linear-gradient-12"/><linearGradient id="linear-gradient-19" x1="1722.46" y1="2610.21" x2="1760" y2="2555.45" gradientTransform="matrix(0.59, -0.81, 0.81, 0.59, 21.2, 657.05)" xlink:href="#linear-gradient-12"/><linearGradient id="linear-gradient-20" x1="1262.03" y1="2331.15" x2="1299.56" y2="2276.39" gradientTransform="matrix(0.59, -0.81, 0.81, 0.59, 21.2, 657.05)" xlink:href="#linear-gradient-12"/><linearGradient id="linear-gradient-21" x1="1320.94" y1="2286.8" x2="1394.81" y2="2179.02" gradientTransform="matrix(0.59, -0.81, 0.81, 0.59, 21.2, 657.05)" xlink:href="#linear-gradient-12"/><linearGradient id="linear-gradient-22" x1="1600.05" y1="2747.22" x2="1673.92" y2="2639.43" gradientTransform="matrix(0.59, -0.81, 0.81, 0.59, 21.2, 657.05)" xlink:href="#linear-gradient-12"/><linearGradient id="linear-gradient-23" x1="1186.17" y1="2720.93" x2="1310.53" y2="2539.48" gradientTransform="matrix(0.59, -0.81, 0.81, 0.59, 21.2, 657.05)" xlink:href="#linear-gradient-12"/><linearGradient id="linear-gradient-24" x1="1646.58" y1="2441.83" x2="1770.94" y2="2260.38" gradientTransform="matrix(0.59, -0.81, 0.81, 0.59, 21.2, 657.05)" xlink:href="#linear-gradient-12"/><linearGradient id="linear-gradient-25" x1="537.09" y1="809.02" x2="417.81" y2="1353.92" xlink:href="#linear-gradient-8"/><linearGradient id="linear-gradient-26" x1="1052.35" y1="1271.79" x2="932.89" y2="1817.49" xlink:href="#linear-gradient-8"/><linearGradient id="linear-gradient-27" x1="1635.37" y1="185.67" x2="1556.8" y2="544.58" xlink:href="#linear-gradient-8"/><linearGradient id="linear-gradient-28" x1="2140.29" y1="646.12" x2="2061.61" y2="1005.54" xlink:href="#linear-gradient-8"/><linearGradient id="linear-gradient-29" x1="1422.66" y1="586.89" x2="1356.02" y2="887.64" xlink:href="#linear-gradient-8"/><linearGradient id="linear-gradient-30" x1="1420.18" y1="586" x2="1353.57" y2="886.63" xlink:href="#linear-gradient-8"/><linearGradient id="linear-gradient-31" x1="1555.62" y1="615.82" x2="1489.02" y2="916.38" xlink:href="#linear-gradient-8"/><linearGradient id="linear-gradient-32" x1="1550.45" y1="614.87" x2="1483.84" y2="915.49" xlink:href="#linear-gradient-8"/><linearGradient id="linear-gradient-33" x1="1478.59" y1="598.91" x2="1412.16" y2="898.68" xlink:href="#linear-gradient-8"/><linearGradient id="linear-gradient-34" x1="1733.68" y1="1005.39" x2="1684.87" y2="1225.65" xlink:href="#linear-gradient-8"/><linearGradient id="linear-gradient-35" x1="1246.98" y1="548.51" x2="1198.18" y2="768.74" xlink:href="#linear-gradient-8"/><linearGradient id="linear-gradient-36" x1="1828.18" y1="1026.56" x2="1779.4" y2="1246.7" xlink:href="#linear-gradient-8"/><linearGradient id="linear-gradient-37" x1="1824.19" y1="1025.86" x2="1775.38" y2="1246.09" xlink:href="#linear-gradient-8"/><linearGradient id="linear-gradient-38" x1="1771.84" y1="1014.18" x2="1723.34" y2="1233.06" xlink:href="#linear-gradient-8"/><linearGradient id="linear-gradient-39" x1="1170.12" y1="246.45" x2="1169.54" y2="225.23" gradientTransform="matrix(1, 0, 0, 1, -372.73, 537.02)" xlink:href="#linear-gradient-12"/><linearGradient id="linear-gradient-40" x1="1956.31" y1="5593.24" x2="2268.82" y2="7611.57" gradientTransform="translate(-362.15 565.9)" xlink:href="#linear-gradient-5"/><linearGradient id="linear-gradient-41" x1="1170.13" y1="364.22" x2="1169.54" y2="343.01" gradientTransform="translate(-296.78 509.25)" xlink:href="#linear-gradient-12"/><linearGradient id="linear-gradient-42" x1="1938.5" y1="5595.99" x2="2251.02" y2="7614.32" gradientTransform="translate(-286.21 538.21)" xlink:href="#linear-gradient-5"/><linearGradient id="linear-gradient-43" x1="1170.13" y1="476.39" x2="1169.55" y2="455.18" gradientTransform="translate(-224.44 482.8)" xlink:href="#linear-gradient-12"/><linearGradient id="linear-gradient-44" x1="1921.54" y1="5598.63" x2="2234.06" y2="7616.96" gradientTransform="translate(-213.86 511.73)" xlink:href="#linear-gradient-5"/><linearGradient id="linear-gradient-45" x1="515.62" y1="246.68" x2="515.04" y2="225.46" gradientTransform="matrix(-1, 0, 0, 1, 1538.88, 345.12)" xlink:href="#linear-gradient-12"/><linearGradient id="linear-gradient-46" x1="1095.71" y1="4262.43" x2="1408.23" y2="6280.76" gradientTransform="matrix(-1, 0, 0, 1, 1528.29, 316.17)" xlink:href="#linear-gradient-5"/><linearGradient id="linear-gradient-47" x1="515.62" y1="364.46" x2="515.04" y2="343.24" gradientTransform="matrix(-1, 0, 0, 1, 1614.83, 317.35)" xlink:href="#linear-gradient-12"/><linearGradient id="linear-gradient-48" x1="1077.9" y1="4265.18" x2="1390.42" y2="6283.52" gradientTransform="matrix(-1, 0, 0, 1, 1604.27, 288.43)" xlink:href="#linear-gradient-5"/><linearGradient id="linear-gradient-49" x1="515.62" y1="476.62" x2="515.04" y2="455.41" gradientTransform="matrix(-1, 0, 0, 1, 1687.17, 290.91)" xlink:href="#linear-gradient-12"/><linearGradient id="linear-gradient-50" x1="1060.94" y1="4267.81" x2="1373.45" y2="6286.13" gradientTransform="matrix(-1, 0, 0, 1, 1676.58, 261.96)" xlink:href="#linear-gradient-5"/><linearGradient id="linear-gradient-51" x1="1690.47" y1="1063.54" x2="2842.9" y2="3400.96" xlink:href="#linear-gradient-5"/><linearGradient id="linear-gradient-52" x1="1314.35" y1="2499.06" x2="1312.76" y2="2441.16" gradientTransform="matrix(0.76, -0.64, 0.64, 0.76, -240, 1343.45)" xlink:href="#linear-gradient-12"/><linearGradient id="linear-gradient-53" x1="1327.22" y1="2420.52" x2="1317.02" y2="2048.47" gradientTransform="translate(902.55 -76.71) rotate(4.84)" xlink:href="#linear-gradient-12"/><linearGradient id="linear-gradient-54" x1="2111.56" y1="941.03" x2="2000.88" y2="2738.04" gradientTransform="translate(2022.22 -856.97) rotate(45)" xlink:href="#linear-gradient-5"/><linearGradient id="linear-gradient-55" x1="2138.58" y1="5565.01" x2="2451.1" y2="7583.34" gradientTransform="matrix(0.76, -0.64, 0.64, 0.76, -240, 1343.45)" xlink:href="#linear-gradient-5"/><linearGradient id="linear-gradient-56" x1="1350.31" y1="2462.73" x2="1320.52" y2="1375.45" gradientTransform="matrix(0.76, -0.64, 0.64, 0.76, -240, 1343.45)" xlink:href="#linear-gradient-12"/><linearGradient id="linear-gradient-57" x1="2079.17" y1="5573.93" x2="2391.67" y2="7592.15" gradientTransform="matrix(0.76, -0.64, 0.64, 0.76, -240, 1343.45)" xlink:href="#linear-gradient-5"/><linearGradient id="linear-gradient-58" x1="2059.34" y1="5577.01" x2="2371.83" y2="7595.24" gradientTransform="matrix(0.76, -0.64, 0.64, 0.76, -240, 1343.45)" xlink:href="#linear-gradient-5"/><linearGradient id="linear-gradient-59" x1="2039.5" y1="5580.08" x2="2352" y2="7598.3" gradientTransform="matrix(0.76, -0.64, 0.64, 0.76, -240, 1343.45)" xlink:href="#linear-gradient-5"/><linearGradient id="linear-gradient-60" x1="2019.66" y1="5583.16" x2="2332.16" y2="7601.38" gradientTransform="matrix(0.76, -0.64, 0.64, 0.76, -240, 1343.45)" xlink:href="#linear-gradient-5"/><linearGradient id="linear-gradient-61" x1="1999.82" y1="5586.24" x2="2312.32" y2="7604.46" gradientTransform="matrix(0.76, -0.64, 0.64, 0.76, -240, 1343.45)" xlink:href="#linear-gradient-5"/><linearGradient id="linear-gradient-62" x1="1979.99" y1="5589.33" x2="2292.49" y2="7607.55" gradientTransform="matrix(0.76, -0.64, 0.64, 0.76, -240, 1343.45)" xlink:href="#linear-gradient-5"/><linearGradient id="linear-gradient-63" x1="1961.87" y1="5592.13" x2="2274.37" y2="7610.35" gradientTransform="matrix(0.76, -0.64, 0.64, 0.76, -240, 1343.45)" xlink:href="#linear-gradient-5"/><linearGradient id="linear-gradient-64" x1="1943.76" y1="5594.94" x2="2256.26" y2="7613.16" gradientTransform="matrix(0.76, -0.64, 0.64, 0.76, -240, 1343.45)" xlink:href="#linear-gradient-5"/><linearGradient id="linear-gradient-65" x1="1925.65" y1="5597.76" x2="2238.15" y2="7615.97" gradientTransform="matrix(0.76, -0.64, 0.64, 0.76, -240, 1343.45)" xlink:href="#linear-gradient-5"/><linearGradient id="linear-gradient-66" x1="1225.56" y1="2434.13" x2="1405.03" y2="2434.13" gradientTransform="matrix(0.76, -0.64, 0.64, 0.76, -240, 1343.45)" gradientUnits="userSpaceOnUse"><stop offset="0" stop-color="#c4421b"/><stop offset="1" stop-color="#5c0e16"/></linearGradient><linearGradient id="linear-gradient-67" x1="1237.21" y1="216.49" x2="1269.93" y2="216.49" gradientTransform="matrix(0.76, -0.64, 0.64, 0.76, -240, 1343.45)" xlink:href="#linear-gradient-12"/><linearGradient id="linear-gradient-68" x1="1237.21" y1="339.87" x2="1269.93" y2="339.87" gradientTransform="matrix(0.76, -0.64, 0.64, 0.76, -240, 1343.45)" xlink:href="#linear-gradient-12"/><linearGradient id="linear-gradient-69" x1="1237.22" y1="452.04" x2="1269.93" y2="452.04" gradientTransform="matrix(0.76, -0.64, 0.64, 0.76, -240, 1343.45)" xlink:href="#linear-gradient-12"/><linearGradient id="linear-gradient-70" x1="1360.6" y1="216.49" x2="1393.31" y2="216.49" gradientTransform="matrix(0.76, -0.64, 0.64, 0.76, -240, 1343.45)" xlink:href="#linear-gradient-12"/><linearGradient id="linear-gradient-71" x1="1360.6" y1="339.87" x2="1393.31" y2="339.87" gradientTransform="matrix(0.76, -0.64, 0.64, 0.76, -240, 1343.45)" xlink:href="#linear-gradient-12"/><linearGradient id="linear-gradient-72" x1="1360.6" y1="452.04" x2="1393.31" y2="452.04" gradientTransform="matrix(0.76, -0.64, 0.64, 0.76, -240, 1343.45)" xlink:href="#linear-gradient-12"/><linearGradient id="linear-gradient-73" x1="2545.12" y1="2156.6" x2="2545.12" y2="1720.16" gradientTransform="matrix(-0.95, 0.31, 0.31, 0.95, 2944.66, -731.23)" gradientUnits="userSpaceOnUse"><stop offset="0" stop-color="#f9b776"/><stop offset="1" stop-color="#f47960"/></linearGradient><linearGradient id="linear-gradient-74" x1="2291.14" y1="2062.94" x2="2577.01" y2="2062.94" xlink:href="#linear-gradient-73"/><linearGradient id="linear-gradient-75" x1="1256.85" y1="1741.97" x2="1271.34" y2="1741.97" gradientTransform="matrix(-0.47, -0.88, -0.88, 0.47, 3174.45, 2191.46)" xlink:href="#linear-gradient-8"/><linearGradient id="linear-gradient-76" x1="1440.54" y1="1795.02" x2="1434.39" y2="2051.15" gradientTransform="matrix(-0.38, -0.92, -0.92, 0.38, 3418.97, 2468.12)" xlink:href="#linear-gradient-8"/><linearGradient id="linear-gradient-77" x1="1439.13" y1="1852.58" x2="1438.6" y2="1874.51" gradientTransform="matrix(-0.38, -0.92, -0.92, 0.38, 3418.97, 2468.12)" xlink:href="#linear-gradient-10"/><linearGradient id="linear-gradient-78" x1="1439.43" y1="1772.61" x2="1436.33" y2="1901.86" gradientTransform="matrix(-0.38, -0.92, -0.92, 0.38, 3418.97, 2468.12)" xlink:href="#linear-gradient-10"/><linearGradient id="linear-gradient-79" x1="1437.82" y1="1821.47" x2="1437.34" y2="1841.47" gradientTransform="matrix(-0.38, -0.92, -0.92, 0.38, 3418.97, 2468.12)" gradientUnits="userSpaceOnUse"><stop offset="0" stop-color="#5ab6ff"/><stop offset="1" stop-color="#2f68e3"/></linearGradient><linearGradient id="linear-gradient-80" x1="1438.37" y1="1843.79" x2="1437.71" y2="1871" xlink:href="#linear-gradient-79"/><linearGradient id="linear-gradient-81" x1="1438.78" y1="1872.68" x2="1437.71" y2="1917.27" gradientTransform="matrix(-0.38, -0.92, -0.92, 0.38, 3418.97, 2468.12)" xlink:href="#linear-gradient-10"/><linearGradient id="linear-gradient-82" x1="1438.91" y1="1937.27" x2="1438.69" y2="1946.44" gradientTransform="matrix(-0.38, -0.92, -0.92, 0.38, 3418.97, 2468.12)" xlink:href="#linear-gradient-10"/><linearGradient id="linear-gradient-83" x1="2541.43" y1="2124.1" x2="2541.43" y2="1755.88" xlink:href="#linear-gradient-73"/><linearGradient id="linear-gradient-84" x1="2546.05" y1="2015.94" x2="2546.05" y2="1798.92" xlink:href="#linear-gradient-73"/><linearGradient id="linear-gradient-85" x1="1195.5" y1="1551.08" x2="1024.74" y2="1701.75" gradientTransform="matrix(-1, 0, 0, 1, 2389.34, 0)" xlink:href="#linear-gradient-8"/><linearGradient id="linear-gradient-86" x1="90.05" y1="1714.95" x2="228.65" y2="1714.95" gradientTransform="matrix(-0.98, -0.18, -0.18, 0.98, 2082.53, 46.6)" xlink:href="#linear-gradient-8"/><linearGradient id="linear-gradient-87" x1="479.35" y1="1588.31" x2="354.91" y2="1777.28" gradientTransform="matrix(-0.98, -0.18, -0.18, 0.98, 2082.53, 46.6)" xlink:href="#linear-gradient-8"/><linearGradient id="linear-gradient-88" x1="45.9" y1="6443.92" x2="-217.28" y2="7332.16" gradientTransform="matrix(-1, 0, 0, 1, 2389.34, 0)" xlink:href="#linear-gradient-5"/><linearGradient id="linear-gradient-89" x1="-124.57" y1="6393.4" x2="-387.75" y2="7281.64" gradientTransform="matrix(-1, 0, 0, 1, 2389.34, 0)" xlink:href="#linear-gradient-5"/><linearGradient id="linear-gradient-90" x1="961.37" y1="2051.97" x2="972.04" y2="1943.42" gradientTransform="matrix(-1, 0, 0, 1, 2389.34, 0)" xlink:href="#linear-gradient-73"/><linearGradient id="linear-gradient-91" x1="835.17" y1="2652.55" x2="944.72" y2="2652.55" gradientTransform="matrix(-1, 0, 0, 1, 2389.34, 0)" xlink:href="#linear-gradient-73"/><linearGradient id="linear-gradient-92" x1="2010.57" y1="2252.03" x2="1261.82" y2="2675.24" gradientTransform="matrix(1, 0, 0, 1, 0, 0)" xlink:href="#linear-gradient-73"/><linearGradient id="linear-gradient-93" x1="1087.98" y1="2441.99" x2="1706.52" y2="2132.72" gradientTransform="matrix(1, 0, 0, 1, 0, 0)" xlink:href="#linear-gradient-73"/><linearGradient id="linear-gradient-94" x1="988.81" y1="1989.64" x2="732.79" y2="2423.38" gradientTransform="matrix(-1, 0, 0, 1, 2389.34, 0)" gradientUnits="userSpaceOnUse"><stop offset="0" stop-color="#fdf53f"/><stop offset="1" stop-color="#d93c65"/></linearGradient><linearGradient id="linear-gradient-95" x1="1526.08" y1="2237.24" x2="914.06" y2="3207.36" gradientTransform="matrix(1, 0, 0, 1, 0, 0)" xlink:href="#linear-gradient-94"/><linearGradient id="linear-gradient-96" x1="1037.51" y1="1976.25" x2="995.26" y2="2068.03" xlink:href="#linear-gradient-94"/><linearGradient id="linear-gradient-97" x1="347.15" y1="1775.02" x2="361.37" y2="1563.49" gradientTransform="matrix(-0.99, -0.17, -0.19, 1.03, 2060.61, 130.45)" xlink:href="#linear-gradient-73"/><linearGradient id="linear-gradient-98" x1="464.49" y1="1947.03" x2="478.73" y2="1735.25" gradientTransform="matrix(-0.98, -0.18, -0.18, 0.98, 2082.53, 46.6)" xlink:href="#linear-gradient-73"/><linearGradient id="linear-gradient-99" x1="264.72" y1="1933.59" x2="278.95" y2="1721.81" gradientTransform="matrix(-0.98, -0.18, -0.18, 0.98, 2082.53, 46.6)" xlink:href="#linear-gradient-73"/><linearGradient id="linear-gradient-100" x1="478.42" y1="1587.7" x2="353.98" y2="1776.66" gradientTransform="matrix(-0.98, -0.18, -0.18, 0.98, 2082.53, 46.6)" xlink:href="#linear-gradient-8"/></defs><title>kid-singing</title><g id="Illustration"><path class="cls-1" d="M3111.15,2323c-278,649.85-1011.91,929-1586.93,881.38-157-13-472.89-39.14-719.54-272.39C331,2484.09,404,1547.77,857.39,996.51c58.4-71,462.59-546.62,1092.46-540.25C2411,460.92,2734.68,721.42,2774,753.87c49.72,41,159.38,138.42,258.21,293C3264.47,1410,3284.89,1917,3111.15,2323Z" transform="translate(-481.77 -456.2)"/><path class="cls-2" d="M1466.91,2344.91c-28-133.25-96.89-244.24-184.65-314.35-78.46-62.68-130.45-153.06-143.07-252.59q-2-15.69-5.31-31.57c-33.67-160.26-159.15-269.55-280.28-244.1s-192,176-158.36,336.24a383.5,383.5,0,0,0,31.35,91.18c43.86,88.66,54.27,190.66,25.36,285.3-25.84,84.57-30.93,182.27-10,282.17,31.3,149,113.74,270.17,216.53,337.48a380.38,380.38,0,0,1,100.14,95.48c45.14,62.59,114.14,96.92,182.15,82.64,73.36-15.41,125-83.1,136.67-167.07,6.6-47.51,22.46-93.12,45.11-135.45C1476.07,2610.34,1495.21,2479.63,1466.91,2344.91Z" transform="translate(-481.77 -456.2)"/><path class="cls-3" d="M931.83,1663.87c38.07,102.59,72.82,206.32,106.48,310.41,8.43,26,16.44,52.17,24.53,78.3l12.13,39.19,11.8,39.29c7.77,26.23,15.9,52.34,23.37,78.66l22.42,78.94c14.27,52.81,29,105.5,42.28,158.58,6.69,26.53,13.89,52.93,20,79.59l18.79,79.9c24,106.77,45.3,214.19,61.14,322.49l-4.66.72-14.94-80.57-3.68-20.14-4.2-20.05-8.45-40.09-8.38-40.09c-2.77-13.37-6-26.64-9-40-6.17-26.61-12.12-53.26-18.46-79.82-26-106.1-53.48-211.85-83.1-317-15.21-52.47-30-105.07-45.55-157.44l-11.58-39.31-11.9-39.21c-7.92-26.15-15.84-52.29-24-78.36q-23.89-78.41-48.95-156.45-24.69-78.18-50.51-156Z" transform="translate(-481.77 -456.2)"/><g class="cls-4"><path class="cls-5" d="M791.31,1960.38a4,4,0,0,1-2.75-2c-71.43-129.61-59.92-227.11-37.69-286.08,24.15-64.06,64.71-96.85,66.43-98.22a4,4,0,0,1,5,6.22c-.41.32-40.78,33-64.1,95.2-21.5,57.34-32.48,152.3,37.37,279A4,4,0,0,1,794,1960,3.93,3.93,0,0,1,791.31,1960.38Z" transform="translate(-481.77 -456.2)"/></g><path class="cls-6" d="M998.34,2638.32c-34.25-68.44-87.49-119-145.13-144.58-51.52-22.9-92.65-64.63-113.73-116.92q-3.33-8.25-7.4-16.41c-41.19-82.31-124.89-123.86-186.94-92.8s-79,122.95-37.79,205.26a215.82,215.82,0,0,0,30,45.09c36.47,41.95,56.71,95.9,54.57,151.45-1.91,49.63,9.3,103.45,35,154.76,38.29,76.53,100.34,130.66,165.72,152.62a213.79,213.79,0,0,1,68,37.65c33.43,27.59,75.77,36.44,110.61,19,37.59-18.81,55.92-62.94,50.23-110.23-3.22-26.77-1.14-53.81,5.09-80C1041.28,2781.27,1033,2707.51,998.34,2638.32Z" transform="translate(-481.77 -456.2)"/><path class="cls-3" d="M610.68,2344.29c35.33,50.34,69,101.78,102.17,153.56,8.29,12.94,16.38,26,24.5,39.06l12.19,19.58,12,19.67c8,13.15,16.12,26.19,23.93,39.43l23.45,39.71c15.3,26.67,30.83,53.22,45.63,80.17,7.42,13.47,15.1,26.79,22.25,40.41l21.62,40.75c28.29,54.61,55.22,110,79.3,166.57l-2.43,1.06-19.62-41.67-4.89-10.42-5.14-10.31-10.32-20.58-10.28-20.6c-3.42-6.87-7.09-13.61-10.61-20.43-7.15-13.58-14.2-27.22-21.43-40.75q-44-80.94-90.43-160.48c-15.76-26.35-31.29-52.84-47.24-79.08l-11.9-19.72-12.07-19.61c-8-13.09-16.07-26.17-24.24-39.17q-24.18-39.21-48.94-78.07-24.57-39-49.7-77.59Z" transform="translate(-481.77 -456.2)"/><g class="cls-4"><path class="cls-5" d="M594.34,2521.87a2.34,2.34,0,0,1-1.93-.63c-64.42-60.92-75.65-118.65-73.74-156.36,2.09-41,19.25-67.08,20-68.17a2.38,2.38,0,0,1,4,2.64c-.17.26-17.24,26.3-19.19,66-1.81,36.64,9.27,92.83,72.26,152.4a2.38,2.38,0,0,1-1.34,4.09Z" transform="translate(-481.77 -456.2)"/></g><path class="cls-7" d="M2740.69,2023.83c15.23-34.9,25.7-71.23,27-110.43,3.35-98.76-57.19-187.41-102.33-270.7-41.49-76.55-74.43-191.67,56.41-186,104.24,4.47,230.19,103.63,248,211.14C2991,1795,2934.57,1958.5,3012.56,2072c109.1,158.72,182.22,118.79,192.13,392.94,4.24,117.14-58.3,184.1-131.33,222.38a311.24,311.24,0,0,1-352.7-44.29c-85.46-76.91-138.7-190-126.27-305.93C2606.94,2220,2695.1,2128.34,2740.69,2023.83Z" transform="translate(-481.77 -456.2)"/><path class="cls-8" d="M2859.83,2903.17a4.72,4.72,0,0,0,4.46-3.75c55.34-260.52,82.09-495.85,79.48-699.44-2.08-163.07-22.89-306.3-61.85-425.73-34.74-106.51-77.82-174-107.83-211.91-32.76-41.34-57.06-57.16-58.08-57.82a4.74,4.74,0,0,0-5.12,8c1,.62,97,64.4,162.43,266,38.49,118.53,59,260.78,61,422.78,2.49,202.63-24.19,436.88-79.28,696.24a4.72,4.72,0,0,0,3.65,5.61A4.11,4.11,0,0,0,2859.83,2903.17Z" transform="translate(-481.77 -456.2)"/><path class="cls-9" d="M2193.64,2278.38c-35.63-139.09-.59-306.41,10-458.35,5.61-80.33,4-159.34-16.68-237.63-20.56-77.84-66.32-159.66-40-241.91,53.1-165.72,224.53-110,330.57.13,123.06,127.74,175.67,351.41,234.65,521.78,35.56,102.71,84,206.85,108,312.75,39.68,175.43,11.91,302.78-64.69,394.6a258.43,258.43,0,0,1-301.2,71.59C2359.24,2600.23,2251.12,2502.76,2193.64,2278.38Z" transform="translate(-481.77 -456.2)"/><path class="cls-10" d="M2635.19,2897.46a6.93,6.93,0,0,0,6.22-6.43c.14-2.18,14.2-221.27-14.74-518.72C2600,2097.67,2530.06,1698,2348.85,1353.7a6.93,6.93,0,1,0-12.27,6.45c180.12,342.25,249.65,739.9,276.27,1013.23,28.86,296.39,14.87,514.56,14.73,516.73a6.91,6.91,0,0,0,6.45,7.37A6.39,6.39,0,0,0,2635.19,2897.46Z" transform="translate(-481.77 -456.2)"/><rect class="cls-11" x="284.26" y="2429.32" width="2177.59" height="311.08"/><rect class="cls-12" x="29.43" y="2588.17" width="2697.17" height="152.23"/><rect class="cls-13" x="6.27" y="2588.17" width="2740.19" height="33.09" rx="16.28"/><path class="cls-14" d="M2983.33,2892.91c0,9.52,2,15.78-5.82,15.78H751.69c-7.82,0-18.75-6.26-18.75-15.78v-.43c0-9.51,10.93-16.89,18.75-16.89H2977.51c7.82,0,5.82,7.38,5.82,16.89Z" transform="translate(-481.77 -456.2)"/><circle class="cls-15" cx="2874.56" cy="855.26" r="175.85" transform="translate(-244.59 1826.92) rotate(-45)"/><path class="cls-16" d="M2705.71,706.55a13,13,0,0,1,2.85,18.15l-1.62,2.22a13,13,0,0,1-18.15,2.85l-69.31-50.5a13,13,0,0,1-2.85-18.15l1.62-2.22a13,13,0,0,1,18.15-2.85Z" transform="translate(-481.77 -456.2)"/><path class="cls-17" d="M3139.19,1022.37a13,13,0,0,1,2.85,18.16l-1.61,2.22a13,13,0,0,1-18.16,2.85L3053,995.1a13,13,0,0,1-2.85-18.15l1.61-2.22a13,13,0,0,1,18.16-2.85Z" transform="translate(-481.77 -456.2)"/><path class="cls-18" d="M3071.26,589.74a13,13,0,0,1,2.85,18.15l-50.49,69.31a13,13,0,0,1-18.16,2.85l-2.22-1.62a13,13,0,0,1-2.85-18.15l50.5-69.31a13,13,0,0,1,18.15-2.85Z" transform="translate(-481.77 -456.2)"/><path class="cls-19" d="M2753.55,1025.8a13,13,0,0,1,2.85,18.15l-50.49,69.31a13,13,0,0,1-18.15,2.85l-2.22-1.62a13,13,0,0,1-2.85-18.15l50.49-69.31a13,13,0,0,1,18.15-2.85Z" transform="translate(-481.77 -456.2)"/><path class="cls-20" d="M2752.28,551.13l-.75.31a13,13,0,0,0-7,17l33.22,79.41a13,13,0,0,0,17,7l.75-.31a13,13,0,0,0,7-17l-33.23-79.41A13,13,0,0,0,2752.28,551.13Z" transform="translate(-481.77 -456.2)"/><path class="cls-21" d="M2960.07,1047.81l-.75.32a13,13,0,0,0-7,17l33.22,79.41a13,13,0,0,0,17,7l.75-.31a13,13,0,0,0,7-17l-33.22-79.41A13,13,0,0,0,2960.07,1047.81Z" transform="translate(-481.77 -456.2)"/><path class="cls-22" d="M3160.31,718.45l-79.41,33.23a13,13,0,0,0-7,17l.32.75a13,13,0,0,0,17,7l79.41-33.22a13,13,0,0,0,7-17l-.31-.75A13,13,0,0,0,3160.31,718.45Z" transform="translate(-481.77 -456.2)"/><path class="cls-23" d="M2663.62,926.24l-79.41,33.22a13,13,0,0,0-7,17l.32.75a13,13,0,0,0,17,7L2674,951a13,13,0,0,0,7-17l-.31-.75A13,13,0,0,0,2663.62,926.24Z" transform="translate(-481.77 -456.2)"/><path class="cls-24" d="M2567.44,811.54a13,13,0,0,0-14,11.85l-.07.81a13,13,0,0,0,11.84,14l85.77,7.28a13,13,0,0,0,14-11.85l.07-.81a13,13,0,0,0-11.85-14Z" transform="translate(-481.77 -456.2)"/><path class="cls-25" d="M3103.91,857.11a13,13,0,0,0-14,11.84l-.06.81a13,13,0,0,0,11.84,14l85.77,7.28a13,13,0,0,0,14.05-11.84l.07-.81a13,13,0,0,0-11.85-14.05Z" transform="translate(-481.77 -456.2)"/><path class="cls-26" d="M2859,1063.69a13,13,0,0,0-14,11.84l-7.29,85.77a13,13,0,0,0,11.85,14l.81.07a13,13,0,0,0,14-11.85l7.29-85.77a13,13,0,0,0-11.85-14Z" transform="translate(-481.77 -456.2)"/><path class="cls-27" d="M2905.35,527.29l-.8-.07a13,13,0,0,0-14.05,11.85l-7.28,85.77a13,13,0,0,0,11.84,14l.81.07a13,13,0,0,0,14.05-11.85l7.28-85.77A13,13,0,0,0,2905.35,527.29Z" transform="translate(-481.77 -456.2)"/><ellipse class="cls-28" cx="457.87" cy="1170.89" rx="50.83" ry="43.68"/><path class="cls-29" d="M1027.89,1375.43c-29.57-18.7-31-38.61-53.36-42.23S958,1369.4,958,1369.4v248a16.52,16.52,0,0,0,16.56,16.29c9,0,15.82,2.43,15.82-6.57l.67-235.68c61.43,10.67,93.55,87.2,93.55,87.2C1090,1435.77,1054.23,1392.1,1027.89,1375.43Z" transform="translate(-481.77 -456.2)"/><ellipse class="cls-30" cx="1583.19" cy="424.02" rx="33.48" ry="28.77"/><path class="cls-31" d="M2123.08,714.46c-19.47-12.32-19-25.43-33.73-27.82s-9.49,23.85-9.49,23.85V873.82c0,5.93,3.57,10.73,9.49,10.73s9.72,1.6,9.72-4.33l.08-155.24c40.47,7,61.45,57.44,61.45,57.44C2164.17,754.2,2140.44,725.44,2123.08,714.46Z" transform="translate(-481.77 -456.2)"/><path class="cls-32" d="M1391.51,813c-5.66,0-13.24-4.58-13.24-10.24v-156c0-5.66,7.58-10.25,13.24-10.25s13.23,4.59,13.23,10.25V808.37C1404.74,814,1397.17,813,1391.51,813Z" transform="translate(-481.77 -456.2)"/><path class="cls-33" d="M1403.55,808.82c0,15.18-14.66,27.48-32.74,27.48s-32.74-12.3-32.74-27.48,14.66-27.48,32.74-27.48S1403.55,793.64,1403.55,808.82Z" transform="translate(-481.77 -456.2)"/><path class="cls-34" d="M1535.47,792.46c-5.66,0-8.28-4.59-8.28-10.25v-156c0-5.66,2.62-10.25,8.28-10.25s8.27,4.59,8.27,10.25V787.87C1543.74,793.53,1541.13,792.46,1535.47,792.46Z" transform="translate(-481.77 -456.2)"/><path class="cls-35" d="M1544.76,788.32c0,15.18-14.66,27.48-32.74,27.48s-32.74-12.3-32.74-27.48,14.66-27.48,32.74-27.48S1544.76,773.14,1544.76,788.32Z" transform="translate(-481.77 -456.2)"/><path class="cls-36" d="M1391.51,693.57l152.23-33.21v-40.1c0-3-.84-5.92-3.18-7.86s-4.34-2.75-7.33-2.21l-141.72,26.25Z" transform="translate(-481.77 -456.2)"/><path class="cls-37" d="M1710.86,1171c-4.14,0-8.27-3.36-8.27-7.51V1049.17c0-4.15,4.13-7.51,8.27-7.51s8.28,3.36,8.28,7.51v118.44C1719.14,1171.75,1715,1171,1710.86,1171Z" transform="translate(-481.77 -456.2)"/><ellipse class="cls-38" cx="1210.81" cy="711.74" rx="23.98" ry="20.13"/><path class="cls-39" d="M1813.46,1156c-4.15,0-5-3.36-5-7.51V1034.15c0-4.14.82-7.51,5-7.51s5,3.37,5,7.51v118.44C1818.42,1156.74,1817.6,1156,1813.46,1156Z" transform="translate(-481.77 -456.2)"/><path class="cls-40" d="M1820,1152.92c0,11.12-10.73,20.13-24,20.13s-24-9-24-20.13,10.74-20.13,24-20.13S1820,1141.8,1820,1152.92Z" transform="translate(-481.77 -456.2)"/><path class="cls-41" d="M1709.21,1083.51l109.21-24.33v-29.37c0-2.23-.19-4.34-1.9-5.76s-2.24-2-4.43-1.62l-102.88,19.23Z" transform="translate(-481.77 -456.2)"/><rect class="cls-42" x="751.87" y="747.45" width="89.74" height="22.43" transform="translate(-783.22 236.45) rotate(-40.16)"/><path class="cls-43" d="M761.11,754h2.68A21.09,21.09,0,0,1,784.88,775v25.11a21.1,21.1,0,0,1-21.1,21.1h-2.68a21.1,21.1,0,0,1-21.1-21.1V775a21.1,21.1,0,0,1,21.1-21.1Z" transform="translate(-809.97 221.21) rotate(-40.16)"/><rect class="cls-44" x="827.82" y="837.47" width="89.74" height="22.43" transform="translate(-823.37 306.66) rotate(-40.16)"/><rect class="cls-45" x="815.97" y="843.97" width="44.87" height="67.3" rx="21.1" transform="translate(-850.11 291.33) rotate(-40.16)"/><rect class="cls-46" x="900.16" y="923.2" width="89.74" height="22.43" transform="translate(-861.6 373.52) rotate(-40.16)"/><path class="cls-47" d="M909.4,929.7h2.68a21.1,21.1,0,0,1,21.1,21.1V975.9a21.1,21.1,0,0,1-21.1,21.1H909.4A21.09,21.09,0,0,1,888.3,975.9V950.79a21.1,21.1,0,0,1,21.1-21.1Z" transform="translate(-888.35 358.24) rotate(-40.16)"/><rect class="cls-48" x="979.05" y="555.76" width="89.74" height="22.43" transform="translate(-606.04 337.77) rotate(-40.16)"/><rect class="cls-49" x="1035.77" y="504.39" width="44.87" height="67.3" rx="21.1" transform="translate(-579.31 353.04) rotate(-40.16)"/><rect class="cls-50" x="1055" y="645.77" width="89.74" height="22.43" transform="translate(-646.19 407.98) rotate(-40.16)"/><path class="cls-51" d="M1132.82,594.4h2.68a21.1,21.1,0,0,1,21.1,21.1v25.11a21.1,21.1,0,0,1-21.1,21.1h-2.67a21.1,21.1,0,0,1-21.1-21.1V615.5a21.09,21.09,0,0,1,21.09-21.09Z" transform="translate(-619.44 423.32) rotate(-40.16)"/><rect class="cls-52" x="1127.34" y="731.5" width="89.74" height="22.43" transform="translate(-684.42 474.84) rotate(-40.16)"/><path class="cls-53" d="M1205.16,680.13h2.68a21.1,21.1,0,0,1,21.1,21.1v25.11a21.1,21.1,0,0,1-21.1,21.1h-2.68a21.09,21.09,0,0,1-21.09-21.09V701.23a21.1,21.1,0,0,1,21.1-21.1Z" transform="translate(-657.69 490.09) rotate(-40.16)"/><path class="cls-54" d="M2457.31,1858.56c-136.76-22.67-173.35-172.1-236.9-271.15C2150.84,1479,2020,1427.91,1893.8,1475.28c-14.66,5.5-204.77,115.66-191.76,131.08C1689,1591,1550.65,1758,1542.76,1771.5c-67.93,116.47-38.5,253.07,56.68,339.89,87,79.31,226.46,141.89,225.79,280.52-.74,154.89,180.77,807.88,818,329.88C3221.63,2174,2610.12,1883.89,2457.31,1858.56Z" transform="translate(-481.77 -456.2)"/><path class="cls-55" d="M2517.56,2198a28,28,0,0,1-3.35,39.52L2184.16,2516a28,28,0,0,1-39.52-3.35h0a28,28,0,0,1,3.35-39.51L2478,2194.6a28.06,28.06,0,0,1,39.52,3.35Z" transform="translate(-481.77 -456.2)"/><circle class="cls-56" cx="2045.56" cy="2012.55" r="218.21" transform="translate(-1305.73 1579.69) rotate(-45)"/><circle class="cls-57" cx="2045.56" cy="2012.55" r="183.98" transform="translate(-1305.73 1579.69) rotate(-45)"/><path class="cls-58" d="M954.25,507.73c-9.27-1.32-19.52,1.17-28.49,6.92-36.79,23.59-61.36,27.73-73.11,28a27.13,27.13,0,0,0-16.45,6.57l-13.59,11.48-16.06,13.55a27,27,0,0,0-9.24,15.1c-2.27,11.54-10.49,35.06-39.92,67.35-7.19,7.88-11.37,17.57-11.62,26.92s3.42,17.61,10.24,22.94c55.72,43.55,157.23,160.36,204.48,216,16.82,19.81,40.27,32.92,68,37.85l67,11.95,43.5-36.71L1180,901l-.49-68.09c-.2-28.13-9.18-53.45-25.88-73.37-46.91-55.93-145-175.64-178.54-237.9C971,514.07,963.51,509.05,954.25,507.73Z" transform="translate(-481.77 -456.2)"/><path class="cls-59" d="M1066.37,967.1,1878.05,1929a13.55,13.55,0,0,0,19.1,1.61l92.65-78.17a13.56,13.56,0,0,0,1.61-19.1L1179.74,871.45Z" transform="translate(-481.77 -456.2)"/><path class="cls-60" d="M1244.25,930.22a4.76,4.76,0,0,1-.56,6.7l-123.54,104.23a4.76,4.76,0,0,1-6.7-.56l-1.22-1.46a4.76,4.76,0,0,1,.56-6.7L1236.33,928.2a4.76,4.76,0,0,1,6.7.56Z" transform="translate(-481.77 -456.2)"/><path class="cls-61" d="M1328.87,1030.5a4.76,4.76,0,0,1-.57,6.7l-123.53,104.23a4.75,4.75,0,0,1-6.7-.56l-1.23-1.46a4.76,4.76,0,0,1,.57-6.7l123.53-104.23a4.75,4.75,0,0,1,6.7.56Z" transform="translate(-481.77 -456.2)"/><path class="cls-62" d="M1413.49,1130.78a4.76,4.76,0,0,1-.57,6.7l-123.53,104.23a4.75,4.75,0,0,1-6.7-.56l-1.23-1.46a4.76,4.76,0,0,1,.57-6.7l123.53-104.23a4.75,4.75,0,0,1,6.7.56Z" transform="translate(-481.77 -456.2)"/><path class="cls-63" d="M1498.1,1231.06a4.76,4.76,0,0,1-.56,6.7L1374,1342a4.76,4.76,0,0,1-6.7-.56l-1.22-1.46a4.76,4.76,0,0,1,.56-6.7L1490.18,1229a4.76,4.76,0,0,1,6.7.56Z" transform="translate(-481.77 -456.2)"/><path class="cls-64" d="M1582.72,1331.34a4.76,4.76,0,0,1-.57,6.7l-123.53,104.23a4.75,4.75,0,0,1-6.7-.56l-1.23-1.46a4.76,4.76,0,0,1,.57-6.7l123.54-104.23a4.74,4.74,0,0,1,6.69.56Z" transform="translate(-481.77 -456.2)"/><path class="cls-65" d="M1667.34,1431.62a4.76,4.76,0,0,1-.57,6.7l-123.53,104.23a4.75,4.75,0,0,1-6.7-.56l-1.23-1.46a4.76,4.76,0,0,1,.57-6.7l123.53-104.23a4.75,4.75,0,0,1,6.7.56Z" transform="translate(-481.77 -456.2)"/><path class="cls-66" d="M1744.6,1523.18a4.76,4.76,0,0,1-.57,6.7L1620.5,1634.11a4.75,4.75,0,0,1-6.7-.56l-1.23-1.46a4.76,4.76,0,0,1,.57-6.7l123.53-104.23a4.75,4.75,0,0,1,6.7.56Z" transform="translate(-481.77 -456.2)"/><path class="cls-67" d="M1821.86,1614.74a4.77,4.77,0,0,1-.57,6.7l-123.54,104.23a4.74,4.74,0,0,1-6.69-.56l-1.23-1.46a4.76,4.76,0,0,1,.57-6.7l123.53-104.23a4.75,4.75,0,0,1,6.7.56Z" transform="translate(-481.77 -456.2)"/><path class="cls-68" d="M1899.11,1706.3a4.76,4.76,0,0,1-.56,6.7L1775,1817.23a4.76,4.76,0,0,1-6.7-.56l-1.22-1.46a4.75,4.75,0,0,1,.57-6.7l123.53-104.23a4.75,4.75,0,0,1,6.7.56Z" transform="translate(-481.77 -456.2)"/><path class="cls-5" d="M2293.44,2390.74a2.8,2.8,0,0,1-4-.33l-1279-1510.64a2.82,2.82,0,0,1,.33-4h0a2.79,2.79,0,0,1,3.94.33l1279,1510.64a2.8,2.8,0,0,1-.33,3.95Z" transform="translate(-481.77 -456.2)"/><path class="cls-5" d="M2310.58,2376.27a2.8,2.8,0,0,1-3.95-.34L1096.44,941.73l-155.86-150a2.8,2.8,0,1,1,3.89-4l156.06,150.17L2310.92,2372.32A2.8,2.8,0,0,1,2310.58,2376.27Z" transform="translate(-481.77 -456.2)"/><path class="cls-5" d="M2327.73,2361.8a2.8,2.8,0,0,1-3.95-.33L1113.59,927.27,858.89,700a2.8,2.8,0,1,1,3.73-4.19l255,227.53L2328.06,2357.85A2.8,2.8,0,0,1,2327.73,2361.8Z" transform="translate(-481.77 -456.2)"/><path class="cls-5" d="M2344.88,2347.33a2.82,2.82,0,0,1-4-.33L1128.65,910.33l-179-287.94a2.77,2.77,0,0,1,.9-3.86,2.81,2.81,0,0,1,3.86.91L1133.18,907l1212,1436.34A2.8,2.8,0,0,1,2344.88,2347.33Z" transform="translate(-481.77 -456.2)"/><path class="cls-5" d="M2362,2332.87a2.8,2.8,0,0,1-3.95-.34L1146.1,896.22,1029.24,716.75a2.8,2.8,0,1,1,4.7-3.06L1150.6,892.88l1211.76,1436A2.81,2.81,0,0,1,2362,2332.87Z" transform="translate(-481.77 -456.2)"/><path class="cls-5" d="M2379.17,2318.4h0a2.81,2.81,0,0,1-3.95-.34L1101.78,802.75a2.81,2.81,0,0,1,.34-4h0a2.82,2.82,0,0,1,4,.34L2379.51,2314.45A2.81,2.81,0,0,1,2379.17,2318.4Z" transform="translate(-481.77 -456.2)"/><path class="cls-69" d="M2404.31,2298.56a7.36,7.36,0,0,1-.87,10.37l-125.92,106.25a7.37,7.37,0,0,1-10.37-.88l-1.36-1.61a7.36,7.36,0,0,1,.88-10.37l125.91-106.25a7.37,7.37,0,0,1,10.38.88Z" transform="translate(-481.77 -456.2)"/><path class="cls-70" d="M870.22,689.94a16.36,16.36,0,1,1-23.05-2A16.36,16.36,0,0,1,870.22,689.94Z" transform="translate(-481.77 -456.2)"/><path class="cls-71" d="M949.79,784.24a16.36,16.36,0,1,1-23-2A16.36,16.36,0,0,1,949.79,784.24Z" transform="translate(-481.77 -456.2)"/><path class="cls-72" d="M1022.13,870a16.36,16.36,0,1,1-23-2A16.36,16.36,0,0,1,1022.13,870Z" transform="translate(-481.77 -456.2)"/><path class="cls-73" d="M964.52,610.36a16.36,16.36,0,1,1-23-2A16.37,16.37,0,0,1,964.52,610.36Z" transform="translate(-481.77 -456.2)"/><path class="cls-74" d="M1044.09,704.67a16.35,16.35,0,1,1-23-2A16.36,16.36,0,0,1,1044.09,704.67Z" transform="translate(-481.77 -456.2)"/><path class="cls-75" d="M1116.43,790.39a16.36,16.36,0,1,1-23-1.95A16.37,16.37,0,0,1,1116.43,790.39Z" transform="translate(-481.77 -456.2)"/><path class="cls-5" d="M2309.68,2843a2.8,2.8,0,0,1-1.49.64c-153.79,17-256.08-63.56-314.81-134.17-63.5-76.32-91.1-157.79-91.38-158.6a2.8,2.8,0,1,1,5.32-1.77c.27.8,27.61,81.4,90.48,156.92,57.84,69.48,158.54,148.79,309.77,132.05a2.8,2.8,0,0,1,2.11,4.93Z" transform="translate(-481.77 -456.2)"/><path class="cls-76" d="M1127.59,1914.48l-28.53-3.48s-22.92-46.32-19.33-52.34,48.52-35.13,54.84-17.78,3.38,49.95,3.38,49.95Z" transform="translate(-481.77 -456.2)"/><path class="cls-77" d="M1351.26,1955.53s-25.5-18.12-66,21.41-125,98.71-133.49,86.7-21.89-151.37-21.89-151.37l-30.35-3.41s-51.08,237.69,53.16,230.21,186.73-95.2,186.73-95.2Z" transform="translate(-481.77 -456.2)"/><path class="cls-78" d="M1025.9,1918.36a12.82,12.82,0,0,0,1.23,1.84,1.72,1.72,0,1,0,2.69-2.15,5.66,5.66,0,0,1-1.33-5.45c2.32-7.6,20.12-14.64,26.78-16.71a1.72,1.72,0,0,0-1-3.29c-1,.33-25.72,8.11-29,19A8.51,8.51,0,0,0,1025.9,1918.36Z" transform="translate(-481.77 -456.2)"/><path class="cls-79" d="M1135.64,1839.74l-64.53,36.65-2.77,1.57-19.89,11.29a3.58,3.58,0,0,0-1.54,4.5l2.5,6a3.6,3.6,0,0,0,4.29,2.08l22-6.17,3.07-.86,71.45-20a7.46,7.46,0,0,0,1.82-.76,8.11,8.11,0,0,0,3.71-4.48l.31-.92-7-13.89-5-14.8-.88-.45a8.17,8.17,0,0,0-5.76-.55A7.77,7.77,0,0,0,1135.64,1839.74Z" transform="translate(-481.77 -456.2)"/><path class="cls-80" d="M1137.51,1839a55.8,55.8,0,0,0,14.57,35.09,8.11,8.11,0,0,0,3.71-4.48l.31-.92-7-13.89-5-14.8-.88-.45A8.17,8.17,0,0,0,1137.51,1839Z" transform="translate(-481.77 -456.2)"/><path class="cls-81" d="M1163.69,1819.27a28,28,0,1,0,36.58,15.06A28,28,0,0,0,1163.69,1819.27Z" transform="translate(-481.77 -456.2)"/><path class="cls-82" d="M1163.86,1815.58c-1.57.65-2.3,2.85-1.61,4.89a503.91,503.91,0,0,0,21.39,51.35c1,1.94,3,3,4.61,2.31l.09,0c1.57-.65,2.3-2.85,1.61-4.9a503.74,503.74,0,0,0-21.39-51.34c-1-1.94-3-3-4.61-2.31Z" transform="translate(-481.77 -456.2)"/><path class="cls-83" d="M1148.21,1831.67a1.74,1.74,0,0,1,.94,1.35,72.16,72.16,0,0,0,16.36,38,1.69,1.69,0,0,1,.29,1.73,1.36,1.36,0,0,1-1.37.87l-5.06-.35a5.71,5.71,0,0,1-4.24-2.48c-3.82-5.45-12.86-19.6-13.22-32a5.54,5.54,0,0,1,1.69-4.23c.93-.87,2.1-1.88,3.11-2.73A1.38,1.38,0,0,1,1148.21,1831.67Z" transform="translate(-481.77 -456.2)"/><path class="cls-84" d="M1111,1867.46a3.45,3.45,0,0,0-1.86,4.51h0a3.45,3.45,0,0,0,4.51,1.86l11.45-4.77a3.45,3.45,0,0,0,1.86-4.51h0a3.45,3.45,0,0,0-4.51-1.86Z" transform="translate(-481.77 -456.2)"/><path class="cls-85" d="M1071.11,1876.39l-2.77,1.57a81.82,81.82,0,0,0,7.4,17.71l3.07-.86A76.92,76.92,0,0,1,1071.11,1876.39Z" transform="translate(-481.77 -456.2)"/><path class="cls-5" d="M1190.92,1862.6a.5.5,0,0,0,.13.19.51.51,0,0,0,.73,0,27.89,27.89,0,0,0,6.14-12.16.51.51,0,1,0-1-.24,27.07,27.07,0,0,1-5.91,11.72A.5.5,0,0,0,1190.92,1862.6Z" transform="translate(-481.77 -456.2)"/><path class="cls-5" d="M1197.8,1844.79a.52.52,0,0,0,1-.17,29.26,29.26,0,0,0-.18-6,.52.52,0,0,0-1,.17,29.59,29.59,0,0,1,.17,5.82A.59.59,0,0,0,1197.8,1844.79Z" transform="translate(-481.77 -456.2)"/><path class="cls-5" d="M1090.47,1887a18.33,18.33,0,0,1-2.58,1.17l58-15.7c.18,0-.46,0-.51-.18s-.61-.17-.79-.12l-56.66,15.28a13.09,13.09,0,0,1,2.56-.49Z" transform="translate(-481.77 -456.2)"/><path class="cls-86" d="M1129.86,1912.27s4.81-17.89,8.09-21.44-8.71-27.19-23.93-36.06-9,4-3.32,12.89-3.56,20.58-2.2,27.38S1129,1915.19,1129.86,1912.27Z" transform="translate(-481.77 -456.2)"/><path class="cls-87" d="M1133.09,1838.34c2.92.71-.41,28.74-8.76,30.77s-17.23,10.09-20.64,11.21-13.15-2.16-22.11-9.88C1066.77,1857.67,1101.55,1830.66,1133.09,1838.34Z" transform="translate(-481.77 -456.2)"/><path class="cls-88" d="M1321.83,1641.14s44.11-39.84-12.6-83C1256,1517.54,1217,1572,1234.66,1607a4.27,4.27,0,0,1-2.88,6.09c-4.65,1-8.68,5.65-1.34,22a4.28,4.28,0,0,1-.49,4.29c-6.54,8.77-28.32,43.86,37.39,49.23a4.32,4.32,0,0,0,3.25-1.11Z" transform="translate(-481.77 -456.2)"/><path class="cls-89" d="M1553.53,1699.61s4.23-50.83,31.44-67.41,80-30.66,102.15,24.61c10.55,26.37,7.06,38.91.52,44.82-6,5.39-6.64,13.76-2.7,20.8,4.48,8,5.08,17.9-8.43,26.88a17.13,17.13,0,0,0-7.51,11c-3.53,18.43-22.39,62.65-123.18,14.3Z" transform="translate(-481.77 -456.2)"/><path class="cls-90" d="M1437,1608.21c19.84-8.51,61.85-17.17,94.54,40a25,25,0,0,0,9.6,9.51c19.48,10.74,75.84,49.76,24.52,120.18a24.45,24.45,0,0,0-4.47,10.9c-1.72,11.94-7.39,38.37-24.46,44.9a24.57,24.57,0,0,0-12.23,10.2c-11.47,18.89-44.18,58.62-99.22,17.12a24.58,24.58,0,0,0-9.46-4.37l-76-16.74a24.65,24.65,0,0,0-12.21.44c-9.29,2.71-28.06,5.09-35-16.77a25,25,0,0,0-7.62-11.44c-12.75-10.83-39.8-40.21-19.34-81.39a24.86,24.86,0,0,0,2.34-14.88c-2.4-15.43-3.65-49.68,28.36-64.46a23.76,23.76,0,0,0,11.26-10.54c10.68-20.55,45.47-73.19,106.77-34.59A24.49,24.49,0,0,0,1437,1608.21Z" transform="translate(-481.77 -456.2)"/><path class="cls-91" d="M1333.76,2816.07l11,12.79-7.58,27.75a19.62,19.62,0,0,1-15.4,14.12c-24.7,4.52-80.72,12.7-109.54.3,0,0-9-60.07,90.33-42.17Z" transform="translate(-481.77 -456.2)"/><path class="cls-92" d="M1506.93,2848l5.89,14.46-2.39,52.05c-.33,7.32-6.23,13.45-14.19,14.68-10.86,1.68-26.65,3.37-41.51,2.22-11.63-.9-18.92-11.82-14.37-21.58l17.53-37.54a22.86,22.86,0,0,1,13.27-12Z" transform="translate(-481.77 -456.2)"/><path class="cls-93" d="M1456.52,1833.23l11.3,112s-60.87,20.65-101-2.66l10.83-112.44Z" transform="translate(-481.77 -456.2)"/><path class="cls-94" d="M1554.17,2446.37s-28.9,322.15-48,420.72c0,0-14.28,10.41-35.64-3l-25.94-429.92Z" transform="translate(-481.77 -456.2)"/><path class="cls-95" d="M1425.75,2465.71l-79.16,360.78s-21.54,22.33-49.53,0l13.65-379.27Z" transform="translate(-481.77 -456.2)"/><path class="cls-96" d="M1525.9,1953.66l19.81,2.21c38.35,41.12,108.69,323.67,134.06,383.75L1783,2322.75a5.15,5.15,0,0,1,5.79,7c-4.58,11.2-21.78,43.51-88.79,43.51-31.31,0,17.56,24.3-1.16,32.64,0,0-41.15-14.82-41.21-40.87,0,0-118-268.66-142.21-296.94S1525.9,1953.66,1525.9,1953.66Z" transform="translate(-481.77 -456.2)"/><path class="cls-97" d="M1545.71,1955.87s-104.93-38.88-235.9,1.36c0,0-14.69,99.16-7.13,146.36l225.7,8.17Z" transform="translate(-481.77 -456.2)"/><path class="cls-98" d="M1305.76,2134.58s-72.12,231.56-82.83,385.84a14.39,14.39,0,0,0,13.36,15.35c15,1.07,41.48,4.77,77.44,16.75,58.32,19.42,106.61,13,150.2.49,34.22-9.82,119.8-18.42,155-21.66a14.36,14.36,0,0,0,12.83-16.84c-10.25-57.09-49.16-259.7-108.19-397.41Z" transform="translate(-481.77 -456.2)"/><path class="cls-99" d="M1301.94,2098.24l3.82,36.34s69.41.27,222.75-4.89l.79-26.28S1359.43,2106.73,1301.94,2098.24Z" transform="translate(-481.77 -456.2)"/><path class="cls-100" d="M1302.44,1724.66c-17.42,67.33-12.34,144.72,66.89,162.08,54.81,12,112.41-43.84,129.84-111.17s-12.41-118.62-66.74-132.68S1319.87,1657.32,1302.44,1724.66Z" transform="translate(-481.77 -456.2)"/><path class="cls-101" d="M1308.4,1745.43s-2.59-40.72-22.9-28.16,7.85,61.36,20.4,64.22S1308.4,1745.43,1308.4,1745.43Z" transform="translate(-481.77 -456.2)"/><path class="cls-102" d="M1482.13,1792.39s6.08-31.06,28.08-16.7-20,65.1-45.85,53.81Z" transform="translate(-481.77 -456.2)"/><path class="cls-103" d="M1514.7,1767.7s-63,68.2-95.73-73.33c0,0-32.66,42.28-47.57,4.89,0,0-65,22.28-72.21-5.07s87.91-101.51,164.38-48.29S1514.7,1767.7,1514.7,1767.7Z" transform="translate(-481.77 -456.2)"/><path class="cls-5" d="M1279.7,1693.71l-.22,0a1.24,1.24,0,0,1-1-1.44c3.55-19.51,9.57-24.18,27.43-38.06,3.44-2.67,7.34-5.69,11.76-9.24,5.26-24.81,41.45-29.79,43-30a1.24,1.24,0,1,1,.32,2.46c-.36,0-36.39,5-41,28.46a1.3,1.3,0,0,1-.44.73c-4.58,3.68-8.59,6.8-12.13,9.54-17.78,13.8-23.14,18-26.51,36.54A1.24,1.24,0,0,1,1279.7,1693.71Z" transform="translate(-481.77 -456.2)"/></g></svg>