<?xml version="1.0" encoding="UTF-8"?>
<!DOCTYPE svg PUBLIC "-//W3C//DTD SVG 1.1//EN" "http://www.w3.org/Graphics/SVG/1.1/DTD/svg11.dtd">
<!-- Creator: CorelDRAW 2020 (64-Bit) -->
<svg xmlns="http://www.w3.org/2000/svg" xml:space="preserve" width="210mm" height="297mm" version="1.1" style="shape-rendering:geometricPrecision; text-rendering:geometricPrecision; image-rendering:optimizeQuality; fill-rule:evenodd; clip-rule:evenodd"
viewBox="0 0 21000 29700"
 xmlns:xlink="http://www.w3.org/1999/xlink"
 xmlns:xodm="http://www.corel.com/coreldraw/odm/2003">
 <defs>
  <style type="text/css">
   <![CDATA[
    .str1 {stroke:gray;stroke-width:27.26;stroke-miterlimit:22.9256}
    .str0 {stroke:#AE25B0;stroke-width:27.26;stroke-miterlimit:22.9256}
    .fil5 {fill:none}
    .fil2 {fill:lime}
    .fil6 {fill:#6666FF}
    .fil8 {fill:gray}
    .fil1 {fill:#AE25B0}
    .fil3 {fill:#EF382E}
    .fil4 {fill:#FF0066}
    .fil9 {fill:yellow}
    .fil7 {fill:white}
    .fil0 {fill:black;fill-rule:nonzero}
   ]]>
  </style>
    <clipPath id="id0">
     <path d="M12508.4 13762.33l-467.14 0 0 2477.26 467.14 0 0 -2477.26z"/>
    </clipPath>
 </defs>
 <g id="Capa_x0020_1">
  <metadata id="CorelCorpID_0Corel-Layer"/>
  <g id="_1946176026624">
   <path class="fil0" d="M2328.87 14165.9c-263.48,-73.19 -668.45,-136.62 -668.45,-404.97 0,-195.16 161.01,-326.91 404.97,-326.91 297.63,0 439.13,165.9 483.04,331.79l770.9 -190.29c-131.74,-541.59 -629.41,-853.85 -1214.9,-853.85 -712.37,0 -1253.94,390.33 -1253.94,1044.14 0,570.86 307.38,888 990.46,1053.89 385.45,97.58 722.11,136.62 722.11,390.33 0,224.45 -214.68,336.67 -502.54,336.67 -370.82,0 -551.35,-209.81 -595.27,-404.97l-770.9 239.07c151.26,634.29 746.51,878.25 1375.92,878.25 853.85,0 1336.88,-507.43 1336.88,-1063.65 0,-531.83 -243.95,-795.31 -1078.28,-1029.5zm2937.24 -502.56c-336.66,0 -556.22,126.86 -697.72,302.52l0 -243.96 -795.3 0 0 3415.4 795.3 0 0 -1180.75c141.5,175.65 361.06,302.5 697.72,302.5 766.03,0 1185.63,-648.93 1185.63,-1297.85 0,-648.93 -419.6,-1297.86 -1185.63,-1297.86zm-146.37 1824.81c-297.63,0 -526.95,-200.05 -526.95,-526.95 0,-331.78 229.32,-531.83 526.95,-531.83 331.78,0 531.82,224.44 531.82,531.83 0,302.51 -200.04,526.95 -531.82,526.95zm2903.09 -1824.81c-770.9,0 -1327.12,561.11 -1327.12,1297.86 0,731.87 556.22,1297.85 1327.12,1297.85 775.79,0 1327.13,-565.98 1327.13,-1297.85 0,-736.75 -551.34,-1297.86 -1327.13,-1297.86zm0 1824.81c-317.15,0 -526.94,-239.08 -526.94,-526.95 0,-287.87 209.79,-531.83 526.94,-531.83 322.03,0 531.82,243.96 531.82,531.83 0,287.87 -209.79,526.95 -531.82,526.95zm3108.02 -1112.45l0 -653.8 -487.93 0 0 -517.19 -790.41 0 0 517.19 -307.39 0 0 653.8 307.39 0 0 863.61c0,483.03 175.65,1000.22 936.79,1000.22 156.14,0 258.59,-14.63 341.55,-43.91l0 -663.56c-39.04,4.87 -87.84,14.64 -151.26,14.64 -243.96,0 -336.67,-131.74 -336.67,-390.34l0 -780.66 487.93 0zm512.31 1819.92l790.42 0 0 -2473.72 -790.42 0 0 2473.72zm395.2 -2746.96c229.33,0 414.74,-190.29 414.74,-419.61 0,-229.31 -185.41,-414.72 -414.74,-414.72 -229.31,0 -414.72,185.41 -414.72,414.72 0,229.32 185.41,419.61 414.72,419.61zm1795.53 1961.42l0 -2629.86 -839.21 0 0 3415.4 2112.68 0 0 -785.54 -1273.47 0zm1688.19 785.54l790.42 0 0 -2473.72 -790.42 0 0 2473.72zm395.21 -2746.96c229.32,0 414.73,-190.29 414.73,-419.61 0,-229.31 -185.41,-414.72 -414.73,-414.72 -229.32,0 -414.73,185.41 -414.73,414.72 0,229.32 185.41,419.61 414.73,419.61zm2049.25 1214.91c-195.17,-39.03 -463.52,-48.79 -463.52,-209.8 0,-136.62 146.37,-180.53 302.5,-180.53 146.38,0 253.72,63.43 283,180.53l663.56 -161.02c-107.34,-419.6 -526.95,-629.41 -951.44,-629.41 -619.65,0 -1063.65,297.63 -1063.65,814.82 0,483.04 258.59,653.81 731.87,761.15 292.75,63.43 551.35,53.67 551.35,224.44 0,126.86 -131.74,175.65 -297.63,175.65 -224.44,0 -322.03,-102.47 -351.3,-200.04l-717.23 224.44c102.46,434.24 580.62,595.25 1078.29,595.25 722.11,0 1107.56,-307.38 1107.56,-829.46 0,-453.75 -248.83,-634.28 -873.36,-766.02zm2629.86 -287.87l0 -653.8 -487.92 0 0 -517.19 -790.42 0 0 517.19 -307.39 0 0 653.8 307.39 0 0 863.61c0,483.03 175.65,1000.22 936.8,1000.22 156.13,0 258.59,-14.63 341.54,-43.91l0 -663.56c-39.04,4.87 -87.83,14.64 -151.26,14.64 -243.96,0 -336.66,-131.74 -336.66,-390.34l0 -780.66 487.92 0z"/>
   <circle class="fil1 str0" cx="5493.64" cy="14865.7" r="497.29"/>
   <rect class="fil2" x="10054.23" y="14272.64" width="1182.38" height="251.43"/>
   <path class="fil3" d="M8201.21 16304.18c675.05,0 1222.27,-527.93 1222.27,-1179.17 0,-651.24 -547.22,-1179.17 -1222.27,-1179.17 -675.04,0 -1222.26,527.93 -1222.26,1179.17 0,651.24 547.22,1179.17 1222.26,1179.17zm0 -391.28c451.06,0 816.69,-352.74 816.69,-787.89 0,-435.15 -365.63,-787.9 -816.69,-787.9 -451.05,0 -816.68,352.75 -816.68,787.9 0,435.15 365.63,787.89 816.68,787.89z"/>
   <g>
   </g>
   <g>
   </g>
   <g style="clip-path:url(#id0)">
    <g id="_2025007855840">
     <rect class="fil4" transform="matrix(0.811773 -0.315929 0.0468967 0.1205 11951.8 15203.5)" width="1395.69" height="296.79"/>
     <rect class="fil4" transform="matrix(0.811773 -0.315929 0.0468967 0.1205 11951.8 15303.9)" width="1395.69" height="296.79"/>
     <rect class="fil4" transform="matrix(0.811773 -0.315929 0.0468967 0.1205 11951.8 15404.3)" width="1395.69" height="296.79"/>
     <rect class="fil4" transform="matrix(0.811773 -0.315929 0.0468967 0.1205 11951.8 15504.6)" width="1395.69" height="296.79"/>
     <rect class="fil4" transform="matrix(0.811773 -0.315929 0.0468967 0.1205 11951.8 15605)" width="1395.69" height="296.79"/>
     <rect class="fil4" transform="matrix(0.811773 -0.315929 0.0468967 0.1205 11951.8 15705.4)" width="1395.69" height="296.79"/>
     <rect class="fil4" transform="matrix(0.811773 -0.315929 0.0468967 0.1205 11951.8 15805.7)" width="1395.69" height="296.79"/>
     <rect class="fil4" transform="matrix(0.811773 -0.315929 0.0468967 0.1205 11951.8 15906.1)" width="1395.69" height="296.79"/>
     <rect class="fil4" transform="matrix(0.811773 -0.315929 0.0468967 0.1205 11951.8 16006.5)" width="1395.69" height="296.79"/>
     <rect class="fil4" transform="matrix(0.811773 -0.315929 0.0468967 0.1205 11951.8 16106.8)" width="1395.69" height="296.79"/>
     <rect class="fil4" transform="matrix(0.811773 -0.315929 0.0468967 0.1205 11951.8 16207.2)" width="1395.69" height="296.79"/>
     <rect class="fil4" transform="matrix(0.811773 -0.315929 0.0468967 0.1205 11951.8 16307.6)" width="1395.69" height="296.79"/>
     <rect class="fil4" transform="matrix(0.811773 -0.315929 0.0468967 0.1205 11951.8 16407.9)" width="1395.69" height="296.79"/>
     <rect class="fil4" transform="matrix(0.811773 -0.315929 0.0468967 0.1205 11951.8 16508.3)" width="1395.69" height="296.79"/>
     <rect class="fil4" transform="matrix(0.811773 -0.315929 0.0468967 0.1205 11951.8 16608.7)" width="1395.69" height="296.79"/>
    </g>
   </g>
   <polygon class="fil5" points="12508.4,13762.33 12041.26,13762.33 12041.26,16239.59 12508.4,16239.59 "/>
   <polygon class="fil5" points="12508.4,13762.33 12041.26,13762.33 12041.26,16239.59 12508.4,16239.59 "/>
   <polygon class="fil6" points="13896.57,15362.99 14106.98,15362.99 14891.16,15362.99 14891.16,15181.96 14106.98,15181.96 14106.98,12354.55 13896.57,12354.55 13896.57,15181.96 "/>
   <polygon class="fil5 str1" points="17254.39,15499.66 17204.81,15727.9 17155.24,15956.15 16982.36,15799.09 16809.48,15642.04 17031.94,15570.85 "/>
   <g id="_1946176026288">
    <rect class="fil7" x="20259.94" y="15718.35" width="103.33" height="279.64"/>
    <rect class="fil7" x="20410.15" y="15718.35" width="103.33" height="279.64"/>
   </g>
   <polygon class="fil7" points="15805.47,12810.99 16008.09,12927.19 16210.7,13043.39 16008.76,13160.75 15806.82,13278.12 15806.15,13044.56 "/>
   <polygon class="fil5 str1" points="17313.71,15649.41 17264.14,15877.66 17214.57,16105.91 17041.68,15948.85 16868.8,15791.8 17091.26,15720.61 "/>
   <polygon class="fil8 str1" points="17197.33,15688.24 17170.92,15809.84 17144.51,15931.44 17052.41,15847.77 16960.3,15764.1 17078.82,15726.17 "/>
   <path class="fil9" d="M1966.29 12594.82c-19.85,-3.94 -39.94,-7.31 -60.27,-10.09 -547.14,-74.82 -1051.37,308.09 -1126.2,855.24 -1.38,10.07 -2.59,20.13 -3.65,30.16l357.58 48.9c162.94,-272.19 449.68,-455.49 772.21,-483.1l60.33 -441.11z"/>
  </g>
 </g>
</svg>
