<?xml version="1.0" encoding="UTF-8"?>
<!DOCTYPE svg PUBLIC "-//W3C//DTD SVG 1.1//EN" "http://www.w3.org/Graphics/SVG/1.1/DTD/svg11.dtd">
<!-- Creator: CorelDRAW 2020 (64-Bit) -->
<svg xmlns="http://www.w3.org/2000/svg" xml:space="preserve" width="210mm" height="297mm" version="1.1" style="shape-rendering:geometricPrecision; text-rendering:geometricPrecision; image-rendering:optimizeQuality; fill-rule:evenodd; clip-rule:evenodd"
viewBox="0 0 21000 29700"
 xmlns:xlink="http://www.w3.org/1999/xlink"
 xmlns:xodm="http://www.corel.com/coreldraw/odm/2003">
 <defs>
  <style type="text/css">
   <![CDATA[
    .str0 {stroke:#4CB05D;stroke-width:150.28;stroke-miterlimit:10}
    .fil43 {fill:none}
    .fil41 {fill:none;fill-rule:nonzero}
    .fil0 {fill:#FEFEFE;fill-rule:nonzero}
    .fil1 {fill:#FCFBFB;fill-rule:nonzero}
    .fil2 {fill:#FAFBFB;fill-rule:nonzero}
    .fil3 {fill:#FAFAFA;fill-rule:nonzero}
    .fil4 {fill:#FAF9F9;fill-rule:nonzero}
    .fil5 {fill:#F8F8F7;fill-rule:nonzero}
    .fil6 {fill:#F6F5F6;fill-rule:nonzero}
    .fil7 {fill:#F6F5F4;fill-rule:nonzero}
    .fil8 {fill:#F3F3F3;fill-rule:nonzero}
    .fil9 {fill:#F2F2F1;fill-rule:nonzero}
    .fil10 {fill:#EFEFF0;fill-rule:nonzero}
    .fil11 {fill:#EFEFEF;fill-rule:nonzero}
    .fil12 {fill:#EEEEEC;fill-rule:nonzero}
    .fil13 {fill:#EEEDEC;fill-rule:nonzero}
    .fil14 {fill:#EBECEC;fill-rule:nonzero}
    .fil15 {fill:#EBEAEA;fill-rule:nonzero}
    .fil16 {fill:#E9E9E9;fill-rule:nonzero}
    .fil17 {fill:#E7E8E9;fill-rule:nonzero}
    .fil18 {fill:#E7E7E6;fill-rule:nonzero}
    .fil19 {fill:#E5E6E6;fill-rule:nonzero}
    .fil20 {fill:#E5E4E3;fill-rule:nonzero}
    .fil21 {fill:#E3E3E3;fill-rule:nonzero}
    .fil22 {fill:#E3E3E1;fill-rule:nonzero}
    .fil23 {fill:#E0E0E0;fill-rule:nonzero}
    .fil24 {fill:#DFDFE0;fill-rule:nonzero}
    .fil25 {fill:#DFDEDD;fill-rule:nonzero}
    .fil26 {fill:#DCDDDD;fill-rule:nonzero}
    .fil27 {fill:#DCDDDC;fill-rule:nonzero}
    .fil28 {fill:#DBDADB;fill-rule:nonzero}
    .fil29 {fill:#D8D9D8;fill-rule:nonzero}
    .fil30 {fill:#D8D8D8;fill-rule:nonzero}
    .fil31 {fill:#D6D5D5;fill-rule:nonzero}
    .fil32 {fill:#D4D4D5;fill-rule:nonzero}
    .fil33 {fill:#D4D3D2;fill-rule:nonzero}
    .fil34 {fill:#D0D1D1;fill-rule:nonzero}
    .fil35 {fill:#D0CFD0;fill-rule:nonzero}
    .fil36 {fill:#CECECE;fill-rule:nonzero}
    .fil37 {fill:#CCCCCB;fill-rule:nonzero}
    .fil38 {fill:#CACBCB;fill-rule:nonzero}
    .fil39 {fill:#CAC9C9;fill-rule:nonzero}
    .fil40 {fill:#C5C5C5;fill-rule:nonzero}
    .fil42 {fill:url(#id1);fill-rule:nonzero}
   ]]>
  </style>
   <clipPath id="id0">
    <path d="M3071.71 7551.12l14842.32 0 0 14842.32 -14842.32 0 0 -14842.32z"/>
   </clipPath>
  <linearGradient id="id1" gradientUnits="userSpaceOnUse" x1="3339.87" y1="12744.41" x2="13333.65" y2="12744.41">
   <stop offset="0" style="stop-opacity:1; stop-color:#64C474"/>
   <stop offset="0.670588" style="stop-opacity:1; stop-color:#4DAF5D"/>
   <stop offset="1" style="stop-opacity:1; stop-color:#359946"/>
  </linearGradient>
 </defs>
 <g id="Capa_x0020_1">
  <metadata id="CorelCorpID_0Corel-Layer"/>
  <g>
  </g>
  <g style="clip-path:url(#id0)">
   <g>
    <path class="fil0" d="M17001.66 18340.96l-1355.96 -5060.62c-491,-1832.54 -2781.69,-2446.3 -4123.22,-1104.81l-3704.62 3704.6c-1341.53,1341.53 -727.72,3632.22 1104.81,4123.18l5060.62 1356.06c1832.55,491.02 3509.44,-1185.87 3018.37,-3018.41l-1355.96 -5060.62c-491,-1832.54 -2781.69,-2446.3 -4123.22,-1104.81l-3704.62 3704.6c-1341.53,1341.53 -727.72,3632.22 1104.81,4123.18l5060.62 1356.06c1832.55,491.02 3509.44,-1185.87 3018.37,-3018.41z"/>
    <path class="fil0" d="M16937.74 18276.99l-1356.02 -5060.58c-491,-1832.53 -2781.69,-2446.35 -4123.18,-1104.81l-3704.6 3704.61c-1341.53,1341.54 -727.73,3632.17 1104.81,4123.24l5060.57 1355.95c1832.59,491.01 3509.44,-1185.82 3018.42,-3018.41l-1356.02 -5060.58c-491,-1832.53 -2781.69,-2446.35 -4123.18,-1104.81l-3704.6 3704.61c-1341.53,1341.54 -727.73,3632.17 1104.81,4123.24l5060.57 1355.95c1832.59,491.01 3509.44,-1185.82 3018.42,-3018.41z"/>
    <path class="fil0" d="M16873.81 18213.05l-1356.01 -5060.62c-491.01,-1832.53 -2781.7,-2446.29 -4123.18,-1104.81l-3704.66 3704.62c-1341.49,1341.53 -727.67,3632.22 1104.86,4123.28l5060.58 1355.96c1832.53,491.01 3509.42,-1185.88 3018.41,-3018.43l-1356.01 -5060.62c-491.01,-1832.53 -2781.7,-2446.29 -4123.18,-1104.81l-3704.66 3704.62c-1341.49,1341.53 -727.67,3632.22 1104.86,4123.28l5060.58 1355.96c1832.53,491.01 3509.42,-1185.88 3018.41,-3018.43z"/>
    <path class="fil1" d="M16809.89 18149.14l-1356.01 -5060.62c-491.01,-1832.55 -2781.7,-2446.35 -4123.23,-1104.82l-3704.62 3704.6c-1341.47,1341.54 -727.72,3632.22 1104.82,4123.24l5060.62 1356c1832.54,490.98 3509.43,-1185.87 3018.42,-3018.4l-1356.01 -5060.62c-491.01,-1832.55 -2781.7,-2446.35 -4123.23,-1104.82l-3704.62 3704.6c-1341.47,1341.54 -727.72,3632.22 1104.82,4123.24l5060.62 1356c1832.54,490.98 3509.43,-1185.87 3018.42,-3018.4z"/>
    <path class="fil2" d="M16745.95 18085.16l-1356 -5060.58c-491.06,-1832.53 -2781.7,-2446.33 -4123.23,-1104.81l-3704.61 3704.62c-1341.53,1341.53 -727.73,3632.16 1104.82,4123.23l5060.62 1355.95c1832.53,491.01 3509.38,-1185.88 3018.4,-3018.41l-1356 -5060.58c-491.06,-1832.53 -2781.7,-2446.33 -4123.23,-1104.81l-3704.61 3704.62c-1341.53,1341.53 -727.73,3632.16 1104.82,4123.23l5060.62 1355.95c1832.53,491.01 3509.38,-1185.88 3018.4,-3018.41z"/>
    <path class="fil3" d="M16681.98 18021.23l-1355.95 -5060.62c-491.07,-1832.54 -2781.76,-2446.29 -4123.23,-1104.76l-3704.62 3704.56c-1341.52,1341.53 -727.78,3632.22 1104.81,4123.28l5060.58 1355.96c1832.53,491.01 3509.42,-1185.88 3018.41,-3018.42l-1355.95 -5060.62c-491.07,-1832.54 -2781.76,-2446.29 -4123.23,-1104.76l-3704.62 3704.56c-1341.52,1341.53 -727.78,3632.22 1104.81,4123.28l5060.58 1355.96c1832.53,491.01 3509.42,-1185.88 3018.41,-3018.42z"/>
    <path class="fil4" d="M16618.06 17957.31l-1356 -5060.62c-491.02,-1832.55 -2781.71,-2446.35 -4123.24,-1104.82l-3704.62 3704.62c-1341.47,1341.52 -727.72,3632.16 1104.82,4123.22l5060.62 1356.02c1832.55,490.96 3509.44,-1185.87 3018.42,-3018.42l-1356 -5060.62c-491.02,-1832.55 -2781.71,-2446.35 -4123.24,-1104.82l-3704.62 3704.62c-1341.47,1341.52 -727.72,3632.16 1104.82,4123.22l5060.62 1356.02c1832.55,490.96 3509.44,-1185.87 3018.42,-3018.42z"/>
    <path class="fil5" d="M16554.08 17893.33l-1355.96 -5060.56c-491.05,-1832.55 -2781.7,-2446.35 -4123.22,-1104.82l-3704.62 3704.61c-1341.53,1341.47 -727.73,3632.18 1104.82,4123.23l5060.56 1355.96c1832.61,491.01 3509.44,-1185.87 3018.42,-3018.42l-1355.96 -5060.56c-491.05,-1832.55 -2781.7,-2446.35 -4123.22,-1104.82l-3704.62 3704.61c-1341.53,1341.47 -727.73,3632.18 1104.82,4123.23l5060.56 1355.96c1832.61,491.01 3509.44,-1185.87 3018.42,-3018.42z"/>
    <path class="fil6" d="M16490.16 17829.41l-1355.96 -5060.57c-491.05,-1832.54 -2781.76,-2446.35 -4123.27,-1104.86l-3704.56 3704.66c-1341.54,1341.47 -727.74,3632.16 1104.75,4123.18l5060.62 1356c1832.55,491.06 3509.43,-1185.87 3018.42,-3018.41l-1355.96 -5060.57c-491.05,-1832.54 -2781.76,-2446.35 -4123.27,-1104.86l-3704.56 3704.66c-1341.54,1341.47 -727.74,3632.16 1104.75,4123.18l5060.62 1356c1832.55,491.06 3509.43,-1185.87 3018.42,-3018.41z"/>
    <path class="fil7" d="M16426.23 17765.44l-1356 -5060.58c-491.02,-1832.53 -2781.71,-2446.29 -4123.18,-1104.81l-3704.66 3704.61c-1341.53,1341.53 -727.73,3632.17 1104.81,4123.22l5060.62 1355.96c1832.54,491.06 3509.37,-1185.81 3018.41,-3018.4l-1356 -5060.58c-491.02,-1832.53 -2781.71,-2446.29 -4123.18,-1104.81l-3704.66 3704.61c-1341.53,1341.53 -727.73,3632.17 1104.81,4123.22l5060.62 1355.96c1832.54,491.06 3509.37,-1185.81 3018.41,-3018.4z"/>
    <path class="fil8" d="M16362.26 17701.56l-1355.96 -5060.62c-491.01,-1832.55 -2781.69,-2446.35 -4123.23,-1104.81l-3704.61 3704.6c-1341.54,1341.53 -727.72,3632.18 1104.81,4123.24l5060.58 1355.96c1832.53,491.05 3509.46,-1185.88 3018.41,-3018.37l-1355.96 -5060.62c-491.01,-1832.55 -2781.69,-2446.35 -4123.23,-1104.81l-3704.61 3704.6c-1341.54,1341.53 -727.72,3632.18 1104.81,4123.24l5060.58 1355.96c1832.53,491.05 3509.46,-1185.88 3018.41,-3018.37z"/>
    <path class="fil8" d="M16298.34 17637.58l-1355.96 -5060.57c-491.06,-1832.59 -2781.75,-2446.35 -4123.24,-1104.86l-3704.6 3704.66c-1341.53,1341.48 -727.74,3632.22 1104.81,4123.18l5060.56 1356c1832.55,491.02 3509.49,-1185.87 3018.43,-3018.41l-1355.96 -5060.57c-491.06,-1832.59 -2781.75,-2446.35 -4123.24,-1104.86l-3704.6 3704.66c-1341.53,1341.48 -727.74,3632.22 1104.81,4123.18l5060.56 1356c1832.55,491.02 3509.49,-1185.87 3018.43,-3018.41z"/>
    <path class="fil9" d="M16234.4 17573.65l-1356 -5060.62c-491.02,-1832.53 -2781.7,-2446.29 -4123.24,-1104.81l-3704.6 3704.61c-1341.49,1341.54 -727.73,3632.22 1104.82,4123.24l5060.62 1355.95c1832.53,491.07 3509.42,-1185.88 3018.4,-3018.37l-1356 -5060.62c-491.02,-1832.53 -2781.7,-2446.29 -4123.24,-1104.81l-3704.6 3704.61c-1341.49,1341.54 -727.73,3632.22 1104.82,4123.24l5060.62 1355.95c1832.53,491.07 3509.42,-1185.88 3018.4,-3018.37z"/>
    <path class="fil9" d="M16170.43 17509.68l-1355.95 -5060.57c-491.01,-1832.55 -2781.7,-2446.34 -4123.23,-1104.81l-3704.62 3704.6c-1341.53,1341.53 -727.72,3632.22 1104.81,4123.24l5060.62 1355.96c1832.49,491.06 3509.44,-1185.88 3018.37,-3018.42l-1355.95 -5060.57c-491.01,-1832.55 -2781.7,-2446.34 -4123.23,-1104.81l-3704.62 3704.6c-1341.53,1341.53 -727.72,3632.22 1104.81,4123.24l5060.62 1355.96c1832.49,491.06 3509.44,-1185.88 3018.37,-3018.42z"/>
    <path class="fil10" d="M16106.51 17445.76l-1356 -5060.62c-491.02,-1832.55 -2781.67,-2446.29 -4123.2,-1104.77l-3704.6 3704.56c-1341.53,1341.53 -727.73,3632.22 1104.81,4123.23l5060.57 1356c1832.54,491.02 3509.48,-1185.87 3018.42,-3018.4l-1356 -5060.62c-491.02,-1832.55 -2781.67,-2446.29 -4123.2,-1104.77l-3704.6 3704.56c-1341.53,1341.53 -727.73,3632.22 1104.81,4123.23l5060.57 1356c1832.54,491.02 3509.48,-1185.87 3018.42,-3018.4z"/>
    <path class="fil11" d="M16042.58 17381.82l-1356.01 -5060.62c-491.01,-1832.53 -2781.7,-2446.29 -4123.23,-1104.81l-3704.56 3704.62c-1341.52,1341.53 -727.78,3632.22 1104.77,4123.23l5060.62 1355.95c1832.53,491.07 3509.42,-1185.88 3018.41,-3018.37l-1356.01 -5060.62c-491.01,-1832.53 -2781.7,-2446.29 -4123.23,-1104.81l-3704.56 3704.62c-1341.52,1341.53 -727.78,3632.22 1104.77,4123.23l5060.62 1355.95c1832.53,491.07 3509.42,-1185.88 3018.41,-3018.37z"/>
    <path class="fil11" d="M15978.6 17317.85l-1355.95 -5060.57c-491.07,-1832.54 -2781.7,-2446.34 -4123.23,-1104.81l-3704.62 3704.62c-1341.52,1341.52 -727.72,3632.2 1104.81,4123.18l5060.62 1356c1832.55,491.06 3509.44,-1185.82 3018.37,-3018.42l-1355.95 -5060.57c-491.07,-1832.54 -2781.7,-2446.34 -4123.23,-1104.81l-3704.62 3704.62c-1341.52,1341.52 -727.72,3632.2 1104.81,4123.18l5060.62 1356c1832.55,491.06 3509.44,-1185.82 3018.37,-3018.42z"/>
    <path class="fil12" d="M15914.68 17253.93l-1356 -5060.56c-491.02,-1832.55 -2781.71,-2446.35 -4123.2,-1104.83l-3704.6 3704.61c-1341.53,1341.48 -727.77,3632.17 1104.82,4123.18l5060.56 1356.02c1832.55,491 3509.48,-1185.83 3018.42,-3018.42l-1356 -5060.56c-491.02,-1832.55 -2781.71,-2446.35 -4123.2,-1104.83l-3704.6 3704.61c-1341.53,1341.48 -727.77,3632.17 1104.82,4123.18l5060.56 1356.02c1832.55,491 3509.48,-1185.83 3018.42,-3018.42z"/>
    <path class="fil13" d="M15850.71 17190.01l-1355.96 -5060.62c-491.02,-1832.55 -2781.71,-2446.3 -4123.18,-1104.81l-3704.66 3704.66c-1341.48,1341.47 -727.68,3632.16 1104.81,4123.18l5060.62 1356c1832.55,491.01 3509.42,-1185.88 3018.37,-3018.41l-1355.96 -5060.62c-491.02,-1832.55 -2781.71,-2446.3 -4123.18,-1104.81l-3704.66 3704.66c-1341.48,1341.47 -727.68,3632.16 1104.81,4123.18l5060.62 1356c1832.55,491.01 3509.42,-1185.88 3018.37,-3018.41z"/>
    <path class="fil14" d="M15786.79 17126.08l-1355.96 -5060.62c-491.02,-1832.54 -2781.71,-2446.29 -4123.24,-1104.82l-3704.6 3704.62c-1341.54,1341.52 -727.74,3632.22 1104.81,4123.18l5060.62 1356.06c1832.53,491 3509.42,-1185.88 3018.37,-3018.42l-1355.96 -5060.62c-491.02,-1832.54 -2781.71,-2446.29 -4123.24,-1104.82l-3704.6 3704.62c-1341.54,1341.52 -727.74,3632.22 1104.81,4123.18l5060.62 1356.06c1832.53,491 3509.42,-1185.88 3018.37,-3018.42z"/>
    <path class="fil15" d="M15722.91 17062.1l-1356.02 -5060.56c-491.06,-1832.55 -2781.74,-2446.35 -4123.22,-1104.82l-3704.62 3704.61c-1341.53,1341.53 -727.72,3632.17 1104.82,4123.23l5060.58 1355.96c1832.53,491 3509.42,-1185.83 3018.46,-3018.42l-1356.02 -5060.56c-491.06,-1832.55 -2781.74,-2446.35 -4123.22,-1104.82l-3704.62 3704.61c-1341.53,1341.53 -727.72,3632.17 1104.82,4123.23l5060.58 1355.96c1832.53,491 3509.42,-1185.83 3018.46,-3018.42z"/>
    <path class="fil16" d="M15658.93 16998.18l-1356.01 -5060.62c-491,-1832.55 -2781.69,-2446.3 -4123.18,-1104.77l-3704.66 3704.56c-1341.48,1341.53 -727.68,3632.22 1104.87,4123.28l5060.56 1355.96c1832.55,491.02 3509.43,-1185.87 3018.42,-3018.41l-1356.01 -5060.62c-491,-1832.55 -2781.69,-2446.3 -4123.18,-1104.77l-3704.66 3704.56c-1341.48,1341.53 -727.68,3632.22 1104.87,4123.28l5060.56 1355.96c1832.55,491.02 3509.43,-1185.87 3018.42,-3018.41z"/>
    <path class="fil16" d="M15595 16934.25l-1356 -5060.62c-491.02,-1832.54 -2781.71,-2446.35 -4123.24,-1104.82l-3704.6 3704.62c-1341.49,1341.53 -727.74,3632.22 1104.81,4123.22l5060.62 1356.02c1832.54,490.96 3509.43,-1185.87 3018.41,-3018.42l-1356 -5060.62c-491.02,-1832.54 -2781.71,-2446.35 -4123.24,-1104.82l-3704.6 3704.62c-1341.49,1341.53 -727.74,3632.22 1104.81,4123.22l5060.62 1356.02c1832.54,490.96 3509.43,-1185.87 3018.41,-3018.42z"/>
    <path class="fil17" d="M15531.08 16870.27l-1356.02 -5060.56c-491.05,-1832.55 -2781.69,-2446.35 -4123.22,-1104.81l-3704.61 3704.6c-1341.54,1341.53 -727.72,3632.18 1104.81,4123.23l5060.62 1355.97c1832.55,491.01 3509.38,-1185.88 3018.42,-3018.43l-1356.02 -5060.56c-491.05,-1832.55 -2781.69,-2446.35 -4123.22,-1104.81l-3704.61 3704.6c-1341.54,1341.53 -727.72,3632.18 1104.81,4123.23l5060.62 1355.97c1832.55,491.01 3509.38,-1185.88 3018.42,-3018.43z"/>
    <path class="fil18" d="M15467.11 16806.35l-1356.01 -5060.62c-491.01,-1832.49 -2781.7,-2446.3 -4123.19,-1104.77l-3704.6 3704.56c-1341.54,1341.53 -727.78,3632.22 1104.81,4123.3l5060.56 1355.94c1832.55,491.02 3509.44,-1185.87 3018.43,-3018.41l-1356.01 -5060.62c-491.01,-1832.49 -2781.7,-2446.3 -4123.19,-1104.77l-3704.6 3704.56c-1341.54,1341.53 -727.78,3632.22 1104.81,4123.3l5060.56 1355.94c1832.55,491.02 3509.44,-1185.87 3018.43,-3018.41z"/>
    <path class="fil19" d="M15403.17 16742.42l-1356 -5060.62c-491.02,-1832.53 -2781.7,-2446.33 -4123.24,-1104.81l-3704.6 3704.61c-1341.49,1341.54 -727.73,3632.17 1104.81,4123.24l5060.63 1356c1832.53,490.96 3509.42,-1185.87 3018.4,-3018.42l-1356 -5060.62c-491.02,-1832.53 -2781.7,-2446.33 -4123.24,-1104.81l-3704.6 3704.61c-1341.49,1341.54 -727.73,3632.17 1104.81,4123.24l5060.63 1356c1832.53,490.96 3509.42,-1185.87 3018.4,-3018.42z"/>
    <path class="fil20" d="M15339.2 16678.45l-1355.95 -5060.57c-491.07,-1832.55 -2781.7,-2446.34 -4123.24,-1104.81l-3704.61 3704.6c-1341.52,1341.49 -727.72,3632.18 1104.81,4123.24l5060.58 1355.96c1832.59,491.06 3509.42,-1185.88 3018.41,-3018.42l-1355.95 -5060.57c-491.07,-1832.55 -2781.7,-2446.34 -4123.24,-1104.81l-3704.61 3704.6c-1341.52,1341.49 -727.72,3632.18 1104.81,4123.24l5060.58 1355.96c1832.59,491.06 3509.42,-1185.88 3018.41,-3018.42z"/>
    <path class="fil21" d="M15275.28 16614.53l-1355.96 -5060.57c-491.06,-1832.55 -2781.75,-2446.34 -4123.28,-1104.87l-3704.56 3704.66c-1341.53,1341.48 -727.74,3632.17 1104.76,4123.18l5060.62 1356.02c1832.54,491.06 3509.43,-1185.88 3018.42,-3018.42l-1355.96 -5060.57c-491.06,-1832.55 -2781.75,-2446.34 -4123.28,-1104.87l-3704.56 3704.66c-1341.53,1341.48 -727.74,3632.17 1104.76,4123.18l5060.62 1356.02c1832.54,491.06 3509.43,-1185.88 3018.42,-3018.42z"/>
    <path class="fil22" d="M15211.36 16550.61l-1356.02 -5060.62c-491.01,-1832.55 -2781.7,-2446.31 -4123.18,-1104.83l-3704.66 3704.62c-1341.53,1341.53 -727.73,3632.22 1104.82,4123.23l5060.62 1355.96c1832.55,491.06 3509.38,-1185.83 3018.42,-3018.36l-1356.02 -5060.62c-491.01,-1832.55 -2781.7,-2446.31 -4123.18,-1104.83l-3704.66 3704.62c-1341.53,1341.53 -727.73,3632.22 1104.82,4123.23l5060.62 1355.96c1832.55,491.06 3509.38,-1185.83 3018.42,-3018.36z"/>
    <path class="fil23" d="M15147.38 16486.67l-1355.96 -5060.62c-491.01,-1832.53 -2781.7,-2446.34 -4123.23,-1104.81l-3704.62 3704.62c-1341.52,1341.51 -727.72,3632.16 1104.83,4123.22l5060.56 1355.96c1832.55,491.06 3509.48,-1185.87 3018.42,-3018.37l-1355.96 -5060.62c-491.01,-1832.53 -2781.7,-2446.34 -4123.23,-1104.81l-3704.62 3704.62c-1341.52,1341.51 -727.72,3632.16 1104.83,4123.22l5060.56 1355.96c1832.55,491.06 3509.48,-1185.87 3018.42,-3018.37z"/>
    <path class="fil23" d="M15083.45 16422.7l-1355.96 -5060.57c-491.06,-1832.59 -2781.7,-2446.34 -4123.22,-1104.81l-3704.62 3704.6c-1341.53,1341.48 -727.72,3632.18 1104.81,4123.18l5060.58 1356.02c1832.54,491 3509.47,-1185.87 3018.41,-3018.42l-1355.96 -5060.57c-491.06,-1832.59 -2781.7,-2446.34 -4123.22,-1104.81l-3704.62 3704.6c-1341.53,1341.48 -727.72,3632.18 1104.81,4123.18l5060.58 1356.02c1832.54,491 3509.47,-1185.87 3018.41,-3018.42z"/>
    <path class="fil23" d="M15019.53 16358.78l-1356.02 -5060.62c-491,-1832.55 -2781.7,-2446.3 -4123.22,-1104.82l-3704.62 3704.61c-1341.47,1341.53 -727.71,3632.22 1104.82,4123.23l5060.62 1355.96c1832.55,491.06 3509.42,-1185.87 3018.42,-3018.36l-1356.02 -5060.62c-491,-1832.55 -2781.7,-2446.3 -4123.22,-1104.82l-3704.62 3704.61c-1341.47,1341.53 -727.71,3632.22 1104.82,4123.23l5060.62 1355.96c1832.55,491.06 3509.42,-1185.87 3018.42,-3018.36z"/>
    <path class="fil24" d="M14955.56 16294.8l-1355.96 -5060.57c-491.02,-1832.54 -2781.71,-2446.35 -4123.24,-1104.82l-3704.6 3704.62c-1341.54,1341.53 -727.74,3632.16 1104.81,4123.22l5060.62 1355.96c1832.49,491.07 3509.42,-1185.87 3018.37,-3018.41l-1355.96 -5060.57c-491.02,-1832.54 -2781.71,-2446.35 -4123.24,-1104.82l-3704.6 3704.62c-1341.54,1341.53 -727.74,3632.16 1104.81,4123.22l5060.62 1355.96c1832.49,491.07 3509.42,-1185.87 3018.37,-3018.41z"/>
    <path class="fil25" d="M14891.62 16230.87l-1356 -5060.62c-491.02,-1832.53 -2781.65,-2446.29 -4123.18,-1104.76l-3704.62 3704.56c-1341.53,1341.53 -727.72,3632.22 1104.82,4123.23l5060.57 1356.01c1832.54,491.02 3509.48,-1185.87 3018.41,-3018.42l-1356 -5060.62c-491.02,-1832.53 -2781.65,-2446.29 -4123.18,-1104.76l-3704.62 3704.56c-1341.53,1341.53 -727.72,3632.22 1104.82,4123.23l5060.57 1356.01c1832.54,491.02 3509.48,-1185.87 3018.41,-3018.42z"/>
    <path class="fil26" d="M14827.7 16166.95l-1356.01 -5060.62c-491.01,-1832.55 -2781.69,-2446.3 -4123.23,-1104.81l-3704.56 3704.66c-1341.53,1341.47 -727.77,3632.16 1104.76,4123.18l5060.62 1355.96c1832.55,491.05 3509.44,-1185.88 3018.42,-3018.37l-1356.01 -5060.62c-491.01,-1832.55 -2781.69,-2446.3 -4123.23,-1104.81l-3704.56 3704.66c-1341.53,1341.47 -727.77,3632.16 1104.76,4123.18l5060.62 1355.96c1832.55,491.05 3509.44,-1185.88 3018.42,-3018.37z"/>
    <path class="fil27" d="M14763.77 16102.98l-1356 -5060.58c-491.06,-1832.54 -2781.71,-2446.35 -4123.24,-1104.82l-3704.6 3704.62c-1341.53,1341.53 -727.74,3632.22 1104.81,4123.24l5060.62 1355.94c1832.54,491.08 3509.43,-1185.81 3018.41,-3018.4l-1356 -5060.58c-491.06,-1832.54 -2781.71,-2446.35 -4123.24,-1104.82l-3704.6 3704.62c-1341.53,1341.53 -727.74,3632.22 1104.81,4123.24l5060.62 1355.94c1832.54,491.08 3509.43,-1185.81 3018.41,-3018.4z"/>
    <path class="fil27" d="M14699.79 16039.04l-1355.94 -5060.56c-491.07,-1832.55 -2781.76,-2446.35 -4123.24,-1104.82l-3704.62 3704.61c-1341.53,1341.49 -727.71,3632.18 1104.82,4123.23l5060.58 1355.96c1832.53,491.02 3509.48,-1185.83 3018.4,-3018.42l-1355.94 -5060.56c-491.07,-1832.55 -2781.76,-2446.35 -4123.24,-1104.82l-3704.62 3704.61c-1341.53,1341.49 -727.71,3632.18 1104.82,4123.23l5060.58 1355.96c1832.53,491.02 3509.48,-1185.83 3018.4,-3018.42z"/>
    <path class="fil28" d="M14635.88 15975.12l-1356.01 -5060.62c-491.01,-1832.54 -2781.7,-2446.29 -4123.19,-1104.81l-3704.66 3704.66c-1341.48,1341.47 -727.68,3632.16 1104.81,4123.18l5060.62 1356.02c1832.55,491 3509.44,-1185.88 3018.43,-3018.43l-1356.01 -5060.62c-491.01,-1832.54 -2781.7,-2446.29 -4123.19,-1104.81l-3704.66 3704.66c-1341.48,1341.47 -727.68,3632.16 1104.81,4123.18l5060.62 1356.02c1832.55,491 3509.44,-1185.88 3018.43,-3018.43z"/>
    <path class="fil28" d="M14571.96 15911.19l-1356.02 -5060.61c-491.02,-1832.54 -2781.71,-2446.3 -4123.24,-1104.82l-3704.6 3704.61c-1341.53,1341.53 -727.73,3632.22 1104.81,4123.24l5060.62 1356c1832.55,491.02 3509.43,-1185.91 3018.43,-3018.42l-1356.02 -5060.61c-491.02,-1832.54 -2781.71,-2446.3 -4123.24,-1104.82l-3704.6 3704.61c-1341.53,1341.53 -727.73,3632.22 1104.81,4123.24l5060.62 1356c1832.55,491.02 3509.43,-1185.91 3018.43,-3018.42z"/>
    <path class="fil29" d="M14507.98 15847.23l-1355.96 -5060.58c-491.07,-1832.53 -2781.76,-2446.35 -4123.24,-1104.81l-3704.61 3704.61c-1341.52,1341.52 -727.72,3632.17 1104.83,4123.23l5060.56 1355.96c1832.55,491.01 3509.42,-1185.82 3018.42,-3018.41l-1355.96 -5060.58c-491.07,-1832.53 -2781.76,-2446.35 -4123.24,-1104.81l-3704.61 3704.61c-1341.52,1341.52 -727.72,3632.17 1104.83,4123.23l5060.56 1355.96c1832.55,491.01 3509.42,-1185.82 3018.42,-3018.41z"/>
    <path class="fil30" d="M14444.05 15783.3l-1356.01 -5060.62c-491.01,-1832.54 -2781.7,-2446.29 -4123.18,-1104.76l-3704.67 3704.56c-1341.47,1341.52 -727.66,3632.22 1104.87,4123.22l5060.58 1356.02c1832.53,491 3509.42,-1185.88 3018.41,-3018.42l-1356.01 -5060.62c-491.01,-1832.54 -2781.7,-2446.29 -4123.18,-1104.76l-3704.67 3704.56c-1341.47,1341.52 -727.66,3632.22 1104.87,4123.22l5060.58 1356.02c1832.53,491 3509.42,-1185.88 3018.41,-3018.42z"/>
    <path class="fil30" d="M14380.07 15719.38l-1355.96 -5060.62c-491,-1832.55 -2781.7,-2446.35 -4123.22,-1104.82l-3704.62 3704.6c-1341.47,1341.54 -727.72,3632.23 1104.82,4123.24l5060.62 1356c1832.54,490.96 3509.42,-1185.87 3018.36,-3018.4l-1355.96 -5060.62c-491,-1832.55 -2781.7,-2446.35 -4123.22,-1104.82l-3704.62 3704.6c-1341.47,1341.54 -727.72,3632.23 1104.82,4123.24l5060.62 1356c1832.54,490.96 3509.42,-1185.87 3018.36,-3018.4z"/>
    <path class="fil31" d="M14252.22 15591.47l-1356 -5060.62c-491.02,-1832.49 -2781.71,-2446.29 -4123.18,-1104.76l-3704.62 3704.56c-1341.53,1341.53 -727.78,3632.22 1104.81,4123.28l5060.58 1355.96c1832.54,491.02 3509.43,-1185.87 3018.41,-3018.42l-1356 -5060.62c-491.02,-1832.49 -2781.71,-2446.29 -4123.18,-1104.76l-3704.62 3704.56c-1341.53,1341.53 -727.78,3632.22 1104.81,4123.28l5060.58 1355.96c1832.54,491.02 3509.43,-1185.87 3018.41,-3018.42z"/>
    <path class="fil32" d="M14188.3 15527.55l-1356.02 -5060.62c-491,-1832.55 -2781.69,-2446.35 -4123.22,-1104.82l-3704.62 3704.61c-1341.47,1341.53 -727.72,3632.22 1104.82,4123.23l5060.62 1356.01c1832.55,490.97 3509.44,-1185.88 3018.42,-3018.41l-1356.02 -5060.62c-491,-1832.55 -2781.69,-2446.35 -4123.22,-1104.82l-3704.62 3704.61c-1341.47,1341.53 -727.72,3632.22 1104.82,4123.23l5060.62 1356.01c1832.55,490.97 3509.44,-1185.88 3018.42,-3018.41z"/>
    <path class="fil33" d="M14124.32 15463.57l-1355.96 -5060.58c-491.05,-1832.53 -2781.7,-2446.34 -4123.23,-1104.81l-3704.61 3704.62c-1341.53,1341.47 -727.73,3632.22 1104.82,4123.23l5060.56 1355.95c1832.59,491.07 3509.48,-1185.87 3018.42,-3018.41l-1355.96 -5060.58c-491.05,-1832.53 -2781.7,-2446.34 -4123.23,-1104.81l-3704.61 3704.62c-1341.53,1341.47 -727.73,3632.22 1104.82,4123.23l5060.56 1355.95c1832.59,491.07 3509.48,-1185.87 3018.42,-3018.41z"/>
    <path class="fil34" d="M14060.39 15399.64l-1355.94 -5060.56c-491.08,-1832.55 -2781.77,-2446.35 -4123.24,-1104.88l-3704.62 3704.66c-1341.53,1341.54 -727.72,3632.18 1104.77,4123.2l5060.62 1356c1832.54,491.06 3509.43,-1185.87 3018.41,-3018.42l-1355.94 -5060.56c-491.08,-1832.55 -2781.77,-2446.35 -4123.24,-1104.88l-3704.62 3704.66c-1341.53,1341.54 -727.72,3632.18 1104.77,4123.2l5060.62 1356c1832.54,491.06 3509.43,-1185.87 3018.41,-3018.42z"/>
    <path class="fil35" d="M13996.47 15335.72l-1356 -5060.62c-491.02,-1832.55 -2781.7,-2446.29 -4123.19,-1104.81l-3704.66 3704.6c-1341.54,1341.53 -727.72,3632.22 1104.87,4123.24l5060.56 1355.96c1832.55,491.05 3509.44,-1185.84 3018.42,-3018.37l-1356 -5060.62c-491.02,-1832.55 -2781.7,-2446.29 -4123.19,-1104.81l-3704.66 3704.6c-1341.54,1341.53 -727.72,3632.22 1104.87,4123.24l5060.56 1355.96c1832.55,491.05 3509.44,-1185.84 3018.42,-3018.37z"/>
    <path class="fil36" d="M13932.5 15271.79l-1355.96 -5060.61c-491.02,-1832.55 -2781.71,-2446.35 -4123.24,-1104.83l-3704.6 3704.62c-1341.54,1341.53 -727.74,3632.16 1104.81,4123.24l5060.56 1355.96c1832.55,491.06 3509.49,-1185.88 3018.43,-3018.38l-1355.96 -5060.61c-491.02,-1832.55 -2781.71,-2446.35 -4123.24,-1104.83l-3704.6 3704.62c-1341.54,1341.53 -727.74,3632.16 1104.81,4123.24l5060.56 1355.96c1832.55,491.06 3509.49,-1185.88 3018.43,-3018.38z"/>
    <path class="fil37" d="M13740.67 15079.92l-1355.96 -5060.57c-491,-1832.54 -2781.71,-2446.34 -4123.22,-1104.81l-3704.62 3704.6c-1341.53,1341.53 -727.72,3632.18 1104.81,4123.24l5060.62 1355.96c1832.55,491.06 3509.43,-1185.83 3018.37,-3018.42l-1355.96 -5060.57c-491,-1832.54 -2781.71,-2446.34 -4123.22,-1104.81l-3704.62 3704.6c-1341.53,1341.53 -727.72,3632.18 1104.81,4123.24l5060.62 1355.96c1832.55,491.06 3509.43,-1185.83 3018.37,-3018.42z"/>
    <path class="fil37" d="M13676.75 15016l-1356.02 -5060.62c-491,-1832.49 -2781.65,-2446.31 -4123.18,-1104.77l-3704.6 3704.56c-1341.53,1341.53 -727.73,3632.22 1104.81,4123.28l5060.57 1355.96c1832.55,491.01 3509.48,-1185.88 3018.42,-3018.41l-1356.02 -5060.62c-491,-1832.49 -2781.65,-2446.31 -4123.18,-1104.77l-3704.6 3704.56c-1341.53,1341.53 -727.73,3632.22 1104.81,4123.28l5060.57 1355.96c1832.55,491.01 3509.48,-1185.88 3018.42,-3018.41z"/>
    <path class="fil38" d="M13612.82 14952.06l-1356.01 -5060.62c-491.01,-1832.53 -2781.7,-2446.29 -4123.23,-1104.81l-3704.56 3704.66c-1341.54,1341.49 -727.78,3632.18 1104.77,4123.18l5060.62 1355.96c1832.53,491.07 3509.42,-1185.82 3018.41,-3018.37l-1356.01 -5060.62c-491.01,-1832.53 -2781.7,-2446.29 -4123.23,-1104.81l-3704.56 3704.66c-1341.54,1341.49 -727.78,3632.18 1104.77,4123.18l5060.62 1355.96c1832.53,491.07 3509.42,-1185.82 3018.41,-3018.37z"/>
    <path class="fil39" d="M13548.9 14888.09l-1356.02 -5060.56c-491.06,-1832.55 -2781.69,-2446.35 -4123.22,-1104.82l-3704.62 3704.6c-1341.53,1341.54 -727.72,3632.22 1104.82,4123.24l5060.62 1355.96c1832.54,491.06 3509.43,-1185.87 3018.42,-3018.42l-1356.02 -5060.56c-491.06,-1832.55 -2781.69,-2446.35 -4123.22,-1104.82l-3704.62 3704.6c-1341.53,1341.54 -727.72,3632.22 1104.82,4123.24l5060.62 1355.96c1832.54,491.06 3509.43,-1185.87 3018.42,-3018.42z"/>
    <path class="fil39" d="M13484.92 14824.17l-1355.96 -5060.58c-491.06,-1832.53 -2781.75,-2446.34 -4123.24,-1104.81l-3704.6 3704.61c-1341.53,1341.48 -727.73,3632.17 1104.82,4123.24l5060.56 1356c1832.55,490.96 3509.48,-1185.93 3018.42,-3018.46l-1355.96 -5060.58c-491.06,-1832.53 -2781.75,-2446.34 -4123.24,-1104.81l-3704.6 3704.61c-1341.53,1341.48 -727.73,3632.17 1104.82,4123.24l5060.56 1356c1832.55,490.96 3509.48,-1185.93 3018.42,-3018.46z"/>
    <path class="fil40" d="M13293.09 14632.34l-1355.96 -5060.58c-491.06,-1832.53 -2781.7,-2446.33 -4123.23,-1104.81l-3704.61 3704.62c-1341.53,1341.53 -727.73,3632.16 1104.82,4123.23l5060.56 1355.96c1832.55,491.01 3509.44,-1185.83 3018.42,-3018.42l-1355.96 -5060.58c-491.06,-1832.53 -2781.7,-2446.33 -4123.23,-1104.81l-3704.61 3704.62c-1341.53,1341.53 -727.73,3632.16 1104.82,4123.23l5060.56 1355.96c1832.55,491.01 3509.44,-1185.83 3018.42,-3018.42z"/>
    <path class="fil41 str0" d="M12906.98 11326.11c-791.34,-368.82 -705.58,-552.88 -1496.93,-921.75 -791.5,-368.87 -877.27,-184.77 -1668.77,-553.64 -791.5,-368.92 -705.68,-552.98 -1497.19,-921.85 -563.3,-262.58 -1166.73,-103.06 -1695.92,41.02 -557.04,151.64 -1159.42,340.32 -1492.32,812.05 -316.17,448.07 -304,1060.07 -249.7,1679.19 76.26,869.74 -126.04,887.48 -49.78,1757.28 76.28,869.92 278.63,852.12 354.88,1722.04 76.3,869.9 -126.03,887.64 -49.75,1757.49 54.31,619.11 494.13,1061.99 883.49,1448.19 409.9,406.6 874.46,833.98 1449.39,886.34 546.22,49.85 1070.1,-266.78 1579.09,-623.33 715.11,-500.93 831.69,-334.6 1546.79,-835.53 715.16,-500.99 598.66,-667.31 1313.87,-1168.35 715.15,-500.97 831.73,-334.65 1546.94,-835.68 508.99,-356.56 672.56,-958.88 812.39,-1489.22 147.19,-558.24 285.01,-1174.26 42.93,-1698.38 -230.01,-497.93 -766.1,-793.31 -1329.41,-1055.87 -791.34,-368.82 -705.58,-552.88 -1496.93,-921.75 -791.5,-368.87 -877.27,-184.77 -1668.77,-553.64 -791.5,-368.92 -705.68,-552.98 -1497.19,-921.85 -563.3,-262.58 -1166.73,-103.06 -1695.92,41.02 -557.04,151.64 -1159.42,340.32 -1492.32,812.05 -316.17,448.07 -304,1060.07 -249.7,1679.19 76.26,869.74 -126.04,887.48 -49.78,1757.28 76.28,869.92 278.63,852.12 354.88,1722.04 76.3,869.9 -126.03,887.64 -49.75,1757.49 54.31,619.11 494.13,1061.99 883.49,1448.19 409.9,406.6 874.46,833.98 1449.39,886.34 546.22,49.85 1070.1,-266.78 1579.09,-623.33 715.11,-500.93 831.69,-334.6 1546.79,-835.53 715.16,-500.99 598.66,-667.31 1313.87,-1168.35 715.15,-500.97 831.73,-334.65 1546.94,-835.68 508.99,-356.56 672.56,-958.88 812.39,-1489.22 147.19,-558.24 285.01,-1174.26 42.93,-1698.38 -230.01,-497.93 -766.1,-793.31 -1329.41,-1055.87z"/>
    <path class="fil42" d="M13247.05 14636.29l-1355.96 -5060.56c-491.08,-1832.59 -2781.71,-2446.35 -4123.24,-1104.82l-3704.62 3704.62c-1341.51,1341.48 -727.72,3632.16 1104.83,4123.18l5060.57 1356c1832.53,491.02 3509.42,-1185.87 3018.42,-3018.42l-1355.96 -5060.56c-491.08,-1832.59 -2781.71,-2446.35 -4123.24,-1104.82l-3704.62 3704.62c-1341.51,1341.48 -727.72,3632.16 1104.83,4123.18l5060.57 1356c1832.53,491.02 3509.42,-1185.87 3018.42,-3018.42z"/>
    <path class="fil0" d="M10223.08 12481.58c-753.03,-447.08 -2012.09,-494.17 -2729.8,-270.63 -117.68,35.31 -235.41,-35.28 -270.69,-141.18 -35.31,-117.68 35.28,-235.31 141.23,-270.64 835.39,-247.13 2212.13,-200.04 3082.84,317.68 105.91,58.86 141.17,200.09 82.41,305.95 -58.86,82.36 -200.04,117.68 -305.99,58.82zm-23.5 658.94c-58.81,82.41 -164.72,117.67 -247.09,58.86 -635.44,-388.31 -1600.29,-505.99 -2341.58,-270.63 -94.14,23.49 -200.05,-23.54 -223.6,-117.68 -23.49,-94.14 23.55,-200.04 117.69,-223.58 858.93,-258.82 1917.96,-129.46 2647.54,317.72 70.54,35.32 105.86,152.94 47.04,235.31zm-282.41 647.17c-47.09,70.64 -129.4,94.13 -200.03,47.09 -552.99,-341.22 -1247.25,-411.86 -2070.97,-223.59 -82.35,23.54 -152.89,-35.27 -176.49,-105.86 -23.49,-82.41 35.32,-153 105.91,-176.49 894.3,-200.05 1670.87,-117.68 2282.72,258.8 82.41,35.32 94.18,129.46 58.86,200.05zm-1082.51 -3400.57c-1299.7,0 -2353.36,1053.66 -2353.36,2353.36 0,1299.75 1053.66,2353.31 2353.36,2353.31 1299.69,0 2353.31,-1053.56 2353.31,-2353.31 0,-1299.7 -1053.62,-2353.36 -2353.31,-2353.36z"/>
   </g>
  </g>
  <polygon class="fil43" points="3071.71,7551.12 17914.03,7551.12 17914.03,22393.44 3071.71,22393.44 "/>
 </g>
</svg>
