<svg id="Layer_1" data-name="Layer 1" xmlns="http://www.w3.org/2000/svg" viewBox="0 0 2273.94 1385.8"><defs><style>.cls-1{fill:#f7cc7f;}.cls-2{fill:#f47458;}.cls-3{fill:#b75742;}.cls-4{fill:#13375b;}.cls-5{fill:#466eb6;}.cls-6{fill:#355389;}.cls-7{fill:#efefef;}.cls-8{fill:#f48c7f;}.cls-9{fill:#184655;}.cls-10{fill:#3c8f7c;}.cls-11{fill:#96d9c9;}.cls-12{fill:#f7a491;}.cls-13{fill:#fae0b2;}.cls-14{fill:#ffd09f;}.cls-15{fill:#ffb769;}.cls-16{fill:#f70;}.cls-17{fill:#fff;}.cls-18{fill:#f8a492;}.cls-19{fill:#86b1f2;}.cls-20{fill:#50bfa5;}.cls-21{fill:#9bc1f9;}.cls-22{fill:#07345a;}</style></defs><title>music-playing</title><path class="cls-1" d="M638.22,910.39a16.63,16.63,0,0,0,4.28,1.15A15.31,15.31,0,0,1,645.6,900l-3.7-4.79C639.3,898.65,636.27,904.3,638.22,910.39Z" transform="translate(-215.86 -334.48)"/><path class="cls-1" d="M666.35,915.73c-4.88-6.59-10.11-13.49-15.3-20.35l-.55.26a14.83,14.83,0,0,0-2.18,1.44,13.24,13.24,0,0,0-2.05,2c-.24.3-.45.6-.67.9,5.73,7.39,11.45,14.66,16.64,21.35A21.54,21.54,0,0,0,666.35,915.73Z" transform="translate(-215.86 -334.48)"/><path class="cls-1" d="M683.17,951c0-.06,3.27,7-.3,11,0,0-4,4.75-7.15-1.52l-.32-.43a2.22,2.22,0,0,0-3-.5,2.53,2.53,0,0,0-.73,3.18,6.65,6.65,0,0,0,2.1,2.73c7.8,6.39,17.29-1.74,16.18-11-.65-5.77-8.38-17.75-18.62-31.92a41.61,41.61,0,0,1-4.43,4.87C675.4,938.46,681.79,947.22,683.17,951Z" transform="translate(-215.86 -334.48)"/><path class="cls-1" d="M662.24,921.37c1.6,2,3.15,4,4.63,6a41.61,41.61,0,0,0,4.43-4.87c-1.6-2.2-3.25-4.46-4.95-6.76A21.54,21.54,0,0,1,662.24,921.37Z" transform="translate(-215.86 -334.48)"/><path class="cls-1" d="M641.9,895.23a24.61,24.61,0,0,1,3-3.36,22.34,22.34,0,0,1,2.22-1.68c-4.46-5.92-8.82-11.74-12.79-17.22-1,3.19-1.84,6.19-2.51,9C635.08,886.33,638.47,890.78,641.9,895.23Z" transform="translate(-215.86 -334.48)"/><path class="cls-1" d="M625.19,872.92c2.12,3,4.34,6,6.64,9.06.67-2.82,1.5-5.82,2.51-9-2.27-3.13-4.42-6.15-6.39-9C627.12,867,626.17,869.94,625.19,872.92Z" transform="translate(-215.86 -334.48)"/><path class="cls-1" d="M639.73,924.08c-3-1.56-15.49-10.29-7.9-42.1-2.3-3.08-4.52-6.11-6.64-9.06-1.15,3.52-2.33,7-3.37,10.55-2.51,8.53-4.64,17.64-3.4,26.39,1.61,11.4,9.89,19.72,20.14,23.7a25.13,25.13,0,0,0,17.07.74,31.21,31.21,0,0,0,11.24-6.94c-1.48-1.94-3-3.94-4.63-6C657,926.46,649,928.84,639.73,924.08Z" transform="translate(-215.86 -334.48)"/><path class="cls-1" d="M627.81,831.72c-7.09-3.73-22.11-4.07-20.86,9.06.57,5.94,8.1,18,18.24,32.14,1-3,1.93-6,2.76-9-10.1-14.68-15.63-25.32-9.91-26a11,11,0,0,1,10.24,5.35c2.78,4.32,2.08,10.14,1.05,15.1-.4,1.87-.87,3.72-1.38,5.56,2,2.87,4.12,5.89,6.39,9,.44-1.37.9-2.78,1.4-4.23,3.15-9.09,3.65-20.19,1.36-26.2A20.8,20.8,0,0,0,627.81,831.72Z" transform="translate(-215.86 -334.48)"/><path class="cls-1" d="M653.19,894.58a14,14,0,0,1,5.6-.42c-1.17-.16,6.05-.21,8.94,8,1.46,4.18.82,9.16-1.38,13.54,1.7,2.3,3.35,4.56,4.95,6.76l.63-.84c15.26-20.68-7.38-43-24.8-31.46l3.92,5.19A12,12,0,0,1,653.19,894.58Z" transform="translate(-215.86 -334.48)"/><path class="cls-1" d="M641.9,895.23l3.7,4.79c.22-.3.43-.6.67-.9a13.24,13.24,0,0,1,2.05-2,14.83,14.83,0,0,1,2.18-1.44l.55-.26-3.92-5.19a22.34,22.34,0,0,0-2.22,1.68A24.61,24.61,0,0,0,641.9,895.23Z" transform="translate(-215.86 -334.48)"/><path class="cls-1" d="M649.2,906.31c3.11,3.34,3.71,7.83,1.34,10.05s-6.82,1.31-9.93-2-3.71-7.83-1.34-10S646.09,903,649.2,906.31Z" transform="translate(-215.86 -334.48)"/><path class="cls-1" d="M681.14,956.31c3.11,3.33,3.71,7.83,1.34,10.05s-6.82,1.31-9.94-2-3.71-7.83-1.33-10.05S678,953,681.14,956.31Z" transform="translate(-215.86 -334.48)"/><rect class="cls-2" x="1269.59" y="766.41" width="134.67" height="265.24"/><path class="cls-3" d="M1620.12,1238.16c-1.2,0-2.4-.05-3.6-.05H1485.45v128h134.67Z" transform="translate(-215.86 -334.48)"/><rect class="cls-2" x="1322.35" y="1263.92" width="434.13" height="441" rx="137.77" transform="translate(2807.97 -389.47) rotate(90)"/><path class="cls-3" d="M1476.79,1322.66H1602a104.7,104.7,0,0,1,104.7,104.7v121A104.69,104.69,0,0,1,1602,1653.05H1476.79a104.7,104.7,0,0,1-104.7-104.7v-121a104.7,104.7,0,0,1,104.7-104.7Z" transform="translate(2811.41 -386.03) rotate(90)"/><circle class="cls-2" cx="1271.89" cy="1088.84" r="10.61"/><circle class="cls-2" cx="1535.04" cy="1423.33" r="10.61" transform="translate(-583.24 1962.35) rotate(-67.5)"/><circle class="cls-2" cx="1582.33" cy="1423.33" r="10.61" transform="translate(-423.42 -62.64) rotate(-9.22)"/><circle class="cls-2" cx="1271.89" cy="1127.36" r="10.61"/><circle class="cls-2" cx="1535.04" cy="1461.84" r="10.61" transform="translate(-618.82 1986.13) rotate(-67.5)"/><circle class="cls-2" cx="1582.33" cy="1461.84" r="10.61" transform="translate(-429.59 -62.14) rotate(-9.22)"/><path class="cls-2" d="M1487.75,1489.74a10.62,10.62,0,1,0,10.61,10.62A10.62,10.62,0,0,0,1487.75,1489.74Z" transform="translate(-215.86 -334.48)"/><path class="cls-2" d="M1535,1489.74a10.62,10.62,0,1,0,10.61,10.62A10.62,10.62,0,0,0,1535,1489.74Z" transform="translate(-215.86 -334.48)"/><path class="cls-2" d="M1582.33,1489.74a10.62,10.62,0,1,0,10.62,10.62A10.62,10.62,0,0,0,1582.33,1489.74Z" transform="translate(-215.86 -334.48)"/><path class="cls-4" d="M941,1701.49h0c0,2.77,2.67,5,6,5H2432.58c3.29,0,6-2.24,6-5h0c0-2.77-2.67-5-6-5H946.91C943.62,1696.47,941,1698.72,941,1701.49Z" transform="translate(-215.86 -334.48)"/><path class="cls-5" d="M1319.16,1697.46s138.27,4.72,168.59-9.65.91-33.36.91-33.36,65.7-15.58,70-36.08-27.21-17.29-27.21-17.29,62.93-44,53.91-57.49c-16.81-25.15-88,19.16-88,19.16s23.69-23.56,7-32.32c-25.18-13.19-61.75,50.28-61.75,50.28s1.83-15.36-17.54-16.31C1390.38,1562.71,1319.16,1697.46,1319.16,1697.46Z" transform="translate(-215.86 -334.48)"/><path class="cls-6" d="M1423.91,1553.33c19.37,1,18.75,27.38,18.75,27.38s36.83-75,62-61.79c16.69,8.75-1.43,40.32-1.43,40.32s65.33-40.8,82.14-15.65l-254.66,144.22C1339,1672,1391.46,1551.75,1423.91,1553.33Z" transform="translate(-215.86 -334.48)"/><path class="cls-5" d="M1314,1697.49s119-82.78,136.08-119.17-15.66-33.35-15.66-33.35,48.94-64.45,37.32-86.71-38.34,4.72-38.34,4.72,24.76-88.63,6.12-94.26c-34.71-10.48-68.67,101.75-68.67,101.75s-13-62.09-35.08-57.48c-33.35,7-.07,98.76-.07,98.76s-9.84-29.9-28.48-16C1273.76,1520.6,1314,1697.49,1314,1697.49Z" transform="translate(-215.86 -334.48)"/><path class="cls-6" d="M1274.67,1497.15c21-9.94,25.22-30.84,25.22-30.84s.14-51.91,33.5-58.87c22.11-4.61,37.59,37.09,37.59,37.09s33.82-86.29,68.53-75.81L1313.63,1696.1C1309.24,1675.23,1249.65,1509,1274.67,1497.15Z" transform="translate(-215.86 -334.48)"/><path class="cls-6" d="M748.19,1712s-284.56-149.25-335.25-227.27,11.19-84.38,11.19-84.38-132.47-132.29-112.87-187,89.37-1.26,89.37-1.26S316,1016.75,356.91,998c76.25-35,179.83,173.11,179.83,173.11s-21.66-90.08,30.49-86.48c78.64,5.44,72.7,208.49,72.7,208.49s9.92-77.75,57-51.83C781.46,1287.76,748.19,1712,748.19,1712Z" transform="translate(-215.86 -334.48)"/><path class="cls-5" d="M714.49,1210.07c-36.77-21-74.45,38.55-74.45,38.55s5.83-158.58-72.81-164c-52.15-3.61-30.49,86.47-30.49,86.47S433.16,963,356.91,998l391.67,710.71C752.06,1659.46,787.33,1251.76,714.49,1210.07Z" transform="translate(-215.86 -334.48)"/><path class="cls-6" d="M745.78,1711.12s-246.71,23.75-309.62-5.22-16.36-61.33-16.36-61.33-135.95-30.64-145.34-72.86,55.75-36.3,55.75-36.3S199.3,1446.08,217.62,1418c34.11-52.31,182,37.52,182,37.52s-49.43-48.1-15.17-66.55C436.1,1361.14,513,1491.32,513,1491.32s-4.12-31.68,35.82-34.08C620.54,1452.94,745.78,1711.12,745.78,1711.12Z" transform="translate(-215.86 -334.48)"/><path class="cls-5" d="M551.11,1434.37c-39.95,2.4-38.07,57-38.07,57s-77.74-153.94-129.4-126.12c-34.26,18.45,3.88,83.2,3.88,83.2s-135.79-82.72-169.9-30.41l529,291.78C729.2,1677.4,618.06,1430.36,551.11,1434.37Z" transform="translate(-215.86 -334.48)"/><path class="cls-1" d="M1820.79,680.31A43.33,43.33,0,1,1,1791,626.74,43.33,43.33,0,0,1,1820.79,680.31Z" transform="translate(-215.86 -334.48)"/><path class="cls-7" d="M1755,668.66a23.17,23.17,0,1,0,44.56,12.72Z" transform="translate(-215.86 -334.48)"/><polygon class="cls-8" points="1383.41 73.92 1359.49 71.99 1356.23 94.11 1332.59 93.25 1326.86 114.01 1309.06 116.25 1310.2 125.27 1334.01 122.26 1339.43 102.59 1364.03 103.49 1367.24 81.73 1388.91 83.48 1383.41 73.92"/><polygon class="cls-8" points="474.32 362.94 473.15 377.51 449.5 378.22 445.16 399.31 427.55 402.73 429.29 411.64 452.84 407.07 456.95 387.08 481.55 386.35 483.31 364.43 474.32 362.94"/><rect class="cls-9" x="748.17" y="666.41" width="387.78" height="698.88" rx="30.69"/><rect class="cls-10" x="833.16" y="1181.12" width="649.54" height="338.44" rx="6.02" transform="translate(2292.4 -142.07) rotate(90)"/><circle class="cls-6" cx="1164.96" cy="1121.5" r="59.07" transform="translate(-466.56 5.47) rotate(-15.01)"/><path class="cls-9" d="M1185.57,1121.5a20.61,20.61,0,1,1-20.61-20.61A20.6,20.6,0,0,1,1185.57,1121.5Z" transform="translate(-215.86 -334.48)"/><circle class="cls-6" cx="1164.96" cy="1350.34" r="83.74" transform="translate(-829.49 884.77) rotate(-45)"/><path class="cls-9" d="M1194.17,1350.34a29.21,29.21,0,1,1-29.21-29.21A29.21,29.21,0,0,1,1194.17,1350.34Z" transform="translate(-215.86 -334.48)"/><circle class="cls-6" cx="1157.92" cy="1564.26" r="83.74" transform="translate(-386.88 -192.05) rotate(-6.56)"/><circle class="cls-9" cx="1157.92" cy="1564.26" r="29.21" transform="translate(-658.12 2337.53) rotate(-88.18)"/><path class="cls-11" d="M2014.21,709.83l19.08,1.94a3,3,0,0,1,2.3,1.51l9.19,16.55a3,3,0,0,0,5.31-.21l7.78-17.24a3,3,0,0,1,2.17-1.68l18.85-3.47a2.9,2.9,0,0,0,1.44-5l-14.27-12.6a2.87,2.87,0,0,1-1-2.55l2.47-18.7a3,3,0,0,0-4.43-2.9l-16.6,9.45a3,3,0,0,1-2.76.11l-17.33-8.08a3,3,0,0,0-4.17,3.24l4,18.44a2.91,2.91,0,0,1-.75,2.62l-13.17,13.7A2.91,2.91,0,0,0,2014.21,709.83Z" transform="translate(-215.86 -334.48)"/><path class="cls-1" d="M907.06,923.41l19.08,2a3,3,0,0,1,2.3,1.5l9.18,16.56a3,3,0,0,0,5.32-.22L950.72,926a3,3,0,0,1,2.17-1.69l18.85-3.47a2.9,2.9,0,0,0,1.43-5l-14.26-12.6a2.86,2.86,0,0,1-1-2.54l2.46-18.7A3,3,0,0,0,956,879l-16.6,9.44a3,3,0,0,1-2.76.12L919.3,880.5a3,3,0,0,0-4.18,3.25l4,18.44a2.87,2.87,0,0,1-.74,2.61l-13.18,13.7A2.91,2.91,0,0,0,907.06,923.41Z" transform="translate(-215.86 -334.48)"/><path class="cls-1" d="M2002.18,910.23l19.08,1.94a3,3,0,0,1,2.3,1.51l9.18,16.55a3,3,0,0,0,5.32-.21l7.78-17.24a3,3,0,0,1,2.17-1.68l18.85-3.47a2.9,2.9,0,0,0,1.44-5L2054,890a2.87,2.87,0,0,1-1-2.55l2.46-18.7a3,3,0,0,0-4.43-2.9l-16.59,9.45a3,3,0,0,1-2.76.11l-17.33-8.08a3,3,0,0,0-4.18,3.24l4,18.44a2.88,2.88,0,0,1-.74,2.62l-13.18,13.7A2.91,2.91,0,0,0,2002.18,910.23Z" transform="translate(-215.86 -334.48)"/><path class="cls-12" d="M1922.73,1272.64c-.84.35,11.08,15.71,22.69,26.57,9.36,11.75,18.14,25.65,21.16,40.82,4.6,23,.78,137,4.78,145,34.35,33.59,59.23,117.88,66.21,143.59a27.58,27.58,0,0,0,7.94,13h0l-1.53,29-17.07,15.73s3.8-23.68-3.79-41.25c0,0-86.49-131-91.63-141-9.81-28.51-45.53-174.6-45.53-174.6l-8.29-33.57Z" transform="translate(-215.86 -334.48)"/><path class="cls-2" d="M2064.21,1651.06s-10.81,16.65-11.73,23.14-6.68,21.2-13,22.14c-1.45.21-26.2,2-26-1.07.14-2.36,9.1-5.74,13.26-8.61,7.19-5,18.35-45.42,18.35-45.42S2063.74,1645.88,2064.21,1651.06Z" transform="translate(-215.86 -334.48)"/><path class="cls-12" d="M1848.8,1323.12s-55.7,119.11-56.06,140.06c-.3,18,9.74,118.67,6.93,202.54-.1,3-3.93,7.06-9.51,9.61-3.15,1.44-18,8.71-18,8.71l-2.44,4.94,52.25-3.72,1.06-12.12-.32-2.15s20.8-125.47,18.68-161c-.34-5.58-3-39-3-39l62.83-121.31-39.51-51.92Z" transform="translate(-215.86 -334.48)"/><path class="cls-4" d="M1976.5,1466.21s0,0,0,0Z" transform="translate(-215.86 -334.48)"/><path class="cls-4" d="M1780.63,1409.78l109.34-158a107.47,107.47,0,0,0,20.33,6.5c15.68,3,31.38,2.54,47.25,2a11.67,11.67,0,0,0,.09,1.55c1.83,13,19.1,33.19,22.66,72.71,4,44.86,1.6,122.78.23,127.9C1907.84,1453.65,1801.25,1431.42,1780.63,1409.78Z" transform="translate(-215.86 -334.48)"/><path class="cls-12" d="M1923.38,1041.25c-.44,4.61-2.88,8.14-5.46,7.88s-4.32-4.22-3.88-8.83,2.87-8.13,5.45-7.87S1923.81,1036.64,1923.38,1041.25Z" transform="translate(-215.86 -334.48)"/><path class="cls-2" d="M1823.57,1697H1755c-2.44-.22-3.07-3.3-1.7-4.68,2.16-2.15,10.22-4.33,18.87-8.31,15.19,1.58,48.48-7.43,50.87-10.91C1824.45,1680.09,1824.93,1696.73,1823.57,1697Z" transform="translate(-215.86 -334.48)"/><path class="cls-12" d="M1757.21,1128.55c.33-.88,1.13-.17,2.11,1.3-1.27-5.35-1.1-12.07-.09-12.67,1.24-.74,2,8.63,4.72,13.7s5.28,11.33,5.66,11c.61-.44-3.25-7.26-6-12.47s-.64-29.14,1.89-12,19.13,30.27,19.61,25-2.3-13.23,1.12-12.07,4.42,12.95,7.42,21.47c.35,1,.38,4,.36,7.53a4.36,4.36,0,0,0,2.87,4.12l43.62,15.86,28.47-49.59,32.21,6.86s-25.91,67.4-48,77.56c-10.07,4.64-57.13-28.36-75.63-44C1759.27,1154.81,1755.79,1132.31,1757.21,1128.55Z" transform="translate(-215.86 -334.48)"/><path class="cls-1" d="M1883.13,1098.65c-11.37,5.42-40.38,72.74-40.38,72.74l37.31,22.88,11.76-34.24S1897.12,1092,1883.13,1098.65Z" transform="translate(-215.86 -334.48)"/><path class="cls-3" d="M1893.87,1043.88c-5.53-13.76-11-27.62-4.77-44.51,5.06-13.67,16.09-22.71,29.93-26.33,39.23-10.26,38.62,16.22,95.36,10.67,58.69-5.73,82.26,58.07,76.83,79.19-26,101-142.63,51.8-158.43,35C1921,1085.48,1897.44,1052.73,1893.87,1043.88Z" transform="translate(-215.86 -334.48)"/><path class="cls-1" d="M1971,1093s6.31-.3,23.34,7.48,53.51,58.38,53.51,58.38L2018.09,1182l-50.92-33.3S1960.72,1093,1971,1093Z" transform="translate(-215.86 -334.48)"/><path class="cls-13" d="M1880.06,1260.23c17.52,9.31,84.92,7.8,84.92,7.8,1.67-17.52,10.61-64.43,14.51-102.11,4.9-26.23-3.19-33.75-8.53-72.91,0-.27-27.18-2.16-27.18-2.16l-28.26.7s-24.57,2-32.39,7.1c-.54.35-3.65,44.61-1.22,76,1.66,21.38,4.08,38.63,3.93,52.77C1885.61,1247.93,1880.06,1260.23,1880.06,1260.23Z" transform="translate(-215.86 -334.48)"/><path class="cls-13" d="M1874.5,1153.08c.55,16.72,22.12,32.82,52.78,32.82s55.51-13.56,55.51-30.29-20.37-40.28-51-40.28S1873.79,1131.87,1874.5,1153.08Z" transform="translate(-215.86 -334.48)"/><path class="cls-12" d="M1937.18,1049.3s.59,4.25,1.5,10.1c1.68,10.71,2.53,28.29,4.68,33.63,1.9,4.7-14.52,49.17-19.92,36.78-9.47-21.73-9.19-28.27-9.68-34s-2-25.34-3.06-38.41l-1-12.22Z" transform="translate(-215.86 -334.48)"/><path class="cls-2" d="M1910.65,1057.12l-.9-12,27.43,4.17s.69,4,1.45,9.64C1927.51,1065.39,1917.51,1063.36,1910.65,1057.12Z" transform="translate(-215.86 -334.48)"/><path class="cls-12" d="M1928.57,987.22a31.16,31.16,0,0,1,17.49,12.63c6.68,10.18,11.26,40.18-10.73,54.18s-39.09-5.81-39.37-25.12S1899.82,983.82,1928.57,987.22Z" transform="translate(-215.86 -334.48)"/><path class="cls-12" d="M1890.93,1022.86c1.87,4.66,5.6,7.56,8.31,6.46s3.4-5.75,1.52-10.41-5.6-7.56-8.31-6.46S1889.05,1018.2,1890.93,1022.86Z" transform="translate(-215.86 -334.48)"/><path class="cls-3" d="M1925.33,986.59s13.78,30.92,25.89,33.68,11.94,18.32,11.94,18.32-.27-35.93-11.62-44.17S1925.33,986.59,1925.33,986.59Z" transform="translate(-215.86 -334.48)"/><path class="cls-12" d="M1946.41,1026.69c-1.59,5-.13,10,3.26,11s7.44-2.12,9-7.14.14-10-3.26-11S1948,1021.67,1946.41,1026.69Z" transform="translate(-215.86 -334.48)"/><rect class="cls-14" x="1705.18" y="1095.01" width="38.63" height="3.04" transform="matrix(-0.49, 0.87, -0.87, -0.49, 3306, -210.46)"/><rect class="cls-15" x="1705.74" y="1095.96" width="38.63" height="1.76" transform="matrix(-0.49, 0.87, -0.87, -0.49, 3307.1, -210.48)"/><rect class="cls-14" x="1718.52" y="1101.72" width="37.78" height="3.04" transform="translate(3331.08 -211.73) rotate(119.13)"/><rect class="cls-15" x="1718.87" y="1102.3" width="37.78" height="2.26" transform="translate(3331.75 -211.75) rotate(119.13)"/><rect class="cls-14" x="1731.81" y="1109.12" width="37.78" height="3.04" transform="translate(3357.3 -212.33) rotate(119.13)"/><rect class="cls-15" x="1732.33" y="1110.01" width="37.78" height="1.85" transform="translate(3358.32 -212.35) rotate(119.13)"/><path class="cls-2" d="M1971.9,1326.77c-12-10.9-19.51-33.55-24-42.69,0,0-5.87-11.94-23.48-12.22a52.08,52.08,0,0,1-46.15-30.92c-9-20.17,12.81-50.53,12.81-50.53l1-1.69s14.37-34.48,36.23-37.48a52.11,52.11,0,0,1,50.58,23c9.5,14.83,22.73,13.54,22.74,13.54,10.12-1,33.33-6.53,48.92-2,14.56,4.19,26.13,14.93,33.19,28.49,7.66,14.71,9,34.85-2.08,60.14-.6,1.35-6.42,13.25-8.36,16.47-1.72,3.35-8.78,14.56-9.62,15.78-15.71,22.68-33.51,32.18-50,33.4C1998.34,1341.14,1983.13,1337,1971.9,1326.77Z" transform="translate(-215.86 -334.48)"/><path class="cls-3" d="M1932.23,1249.91c14.34,8,32.92,2,41.5-13.41s3.92-34.36-10.42-42.35-32.93-2-41.51,13.41S1917.89,1241.92,1932.23,1249.91Z" transform="translate(-215.86 -334.48)"/><path class="cls-4" d="M1937.67,1240.14c9.32,5.19,21.39,1.29,27-8.71s2.55-22.32-6.77-27.51-21.39-1.3-27,8.71S1928.36,1235,1937.67,1240.14Z" transform="translate(-215.86 -334.48)"/><path class="cls-16" d="M1713,1069a32.89,32.89,0,0,0-17.58,31.24l0,.27,54.18,27c2.3-.75,10.13,1.1,10.13,1.1l10.93-19.61s-5.69-5.69-6.27-8L1713,1069Zm39.7,40.87-30-18.42a5.29,5.29,0,0,1-1.49-7.29h0a5.22,5.22,0,0,1,7.13-2l30,18.42a5.29,5.29,0,0,1,1.49,7.29h0A5.22,5.22,0,0,1,1752.68,1109.84Zm-39.84-10.7h0a5.3,5.3,0,0,1,7-2.57l31.43,15.82a5.21,5.21,0,0,1,2,7.11h0a5.28,5.28,0,0,1-7,2.56l-31.44-15.81A5.22,5.22,0,0,1,1712.84,1099.14Z" transform="translate(-215.86 -334.48)"/><path class="cls-9" d="M1930.9,1212.63a21.39,21.39,0,0,0-2.05,16.11l-169.12-100.21,10.93-19.61,175.27,92.94A21.21,21.21,0,0,0,1930.9,1212.63Z" transform="translate(-215.86 -334.48)"/><rect class="cls-3" x="1976.05" y="1255.31" width="84.08" height="12.52" transform="translate(3886.71 -221.47) rotate(119.13)"/><path class="cls-9" d="M1764.8,1096.34l.06-.11a1.68,1.68,0,0,0-.65-2.28l-6.31-3.52a1.68,1.68,0,0,0-2.28.65l-.06.11a1.68,1.68,0,0,0,.65,2.28l6.31,3.52A1.68,1.68,0,0,0,1764.8,1096.34Z" transform="translate(-215.86 -334.48)"/><path class="cls-9" d="M1751.46,1088.9l.06-.1a1.69,1.69,0,0,0-.65-2.29l-6.31-3.51a1.67,1.67,0,0,0-2.28.65l-.06.1a1.69,1.69,0,0,0,.65,2.29l6.31,3.51A1.68,1.68,0,0,0,1751.46,1088.9Z" transform="translate(-215.86 -334.48)"/><path class="cls-9" d="M1739.06,1081.26l.06-.1a1.69,1.69,0,0,0-.65-2.29l-6.31-3.51a1.66,1.66,0,0,0-2.28.64l-.06.11a1.68,1.68,0,0,0,.65,2.28l6.31,3.52A1.68,1.68,0,0,0,1739.06,1081.26Z" transform="translate(-215.86 -334.48)"/><path class="cls-9" d="M1719.68,1116l.06-.11a1.67,1.67,0,0,0-.65-2.28l-6.3-3.52a1.69,1.69,0,0,0-2.29.65l-.06.11a1.68,1.68,0,0,0,.65,2.28l6.31,3.52A1.68,1.68,0,0,0,1719.68,1116Z" transform="translate(-215.86 -334.48)"/><path class="cls-9" d="M1732.6,1122.74l.06-.11a1.68,1.68,0,0,0-.65-2.28l-6.31-3.52a1.68,1.68,0,0,0-2.28.65l-.06.11a1.68,1.68,0,0,0,.65,2.28l6.31,3.52A1.68,1.68,0,0,0,1732.6,1122.74Z" transform="translate(-215.86 -334.48)"/><path class="cls-9" d="M1745.6,1130l.06-.1a1.69,1.69,0,0,0-.65-2.29l-6.31-3.51a1.69,1.69,0,0,0-2.29.65l-.06.1a1.69,1.69,0,0,0,.65,2.29l6.31,3.51A1.69,1.69,0,0,0,1745.6,1130Z" transform="translate(-215.86 -334.48)"/><polygon class="cls-11" points="1543.87 794.04 1554.8 774.44 1557.02 775.62 1546.04 795.33 1543.87 794.04"/><polygon class="cls-11" points="1558.9 802.95 1570.22 782.62 1571.16 783.12 1559.81 803.49 1558.9 802.95"/><polygon class="cls-11" points="1572.67 811.11 1584.37 790.12 1585.3 790.62 1573.58 811.65 1572.67 811.11"/><polygon class="cls-11" points="1584.39 818.06 1596.4 796.5 1597.34 797 1585.31 818.6 1584.39 818.06"/><polygon class="cls-11" points="1596.12 825 1608.44 802.89 1609.38 803.38 1597.03 825.54 1596.12 825"/><polygon class="cls-11" points="1606.93 831.41 1619.55 808.78 1620.48 809.27 1607.84 831.95 1606.93 831.41"/><polygon class="cls-11" points="1617.74 837.82 1630.65 814.66 1631.58 815.16 1618.65 838.36 1617.74 837.82"/><polygon class="cls-11" points="1626.89 843.24 1640.04 819.64 1640.97 820.14 1627.8 843.78 1626.89 843.24"/><polygon class="cls-11" points="1636.03 848.66 1649.43 824.62 1650.36 825.12 1636.94 849.2 1636.03 848.66"/><polygon class="cls-11" points="1644.87 853.9 1658.51 829.43 1659.44 829.93 1645.78 854.43 1644.87 853.9"/><polygon class="cls-11" points="1653.14 858.8 1667 833.94 1667.93 834.43 1654.05 859.34 1653.14 858.8"/><polygon class="cls-11" points="1660.96 863.43 1675.02 838.19 1675.96 838.69 1661.87 863.97 1660.96 863.43"/><polygon class="cls-11" points="1675.07 871.79 1689.51 845.88 1690.45 846.37 1675.98 872.33 1675.07 871.79"/><polygon class="cls-11" points="1681.97 875.88 1696.6 849.63 1697.54 850.13 1682.88 876.42 1681.97 875.88"/><polygon class="cls-11" points="1687.59 879.21 1702.37 852.69 1703.3 853.19 1688.5 879.75 1687.59 879.21"/><polygon class="cls-11" points="1693.51 882.72 1708.45 855.92 1709.38 856.41 1694.42 883.26 1693.51 882.72"/><rect class="cls-17" x="1727.94" y="1085.95" width="1.66" height="4.85" transform="translate(3305.33 -226.11) rotate(119.14)"/><rect class="cls-17" x="1720.54" y="1100.5" width="1.14" height="4.32" transform="translate(3306.83 -197.41) rotate(119.16)"/><rect class="cls-17" x="1740.85" y="1093.01" width="1.27" height="5.2" transform="translate(3331.02 -225.62) rotate(119.17)"/><rect class="cls-17" x="1733.17" y="1107.18" width="1.74" height="4.67" transform="translate(3331.65 -199.24) rotate(119.14)"/><rect class="cls-17" x="1754.15" y="1100.17" width="1.44" height="4.49" transform="translate(3356.5 -227.86) rotate(119.14)"/><rect class="cls-17" x="1745.87" y="1116.42" width="0.85" height="4.14" transform="translate(3356.87 -198.2) rotate(119.09)"/><polygon class="cls-11" points="1667.71 867.43 1681.95 841.87 1682.89 842.36 1668.62 867.97 1667.71 867.43"/><path class="cls-12" d="M1956.82,1255.44c.17.42-5.94,1.74-11.47,3.33s-14.64,1.61-14.21,2.94c.33,1,5.93,1.65,11.08,1.25-1.29.55-1.88,1.08-1.2,1.52,2.81,1.8,18.93.79,33.72-5.51s101-53.59,92.22-66.9c-3.21-4.9-17-19-24.89-28.74l-22.57,17.57,11.62,12.68c-17.8,19.06-45,39.73-46.44,40.73-3.77,2.7-11,.37-12.67.33-9-.24-20.52-.34-22.44,2.66s6.41,2,11.38,3.52-11.53,14.59-28.69,13.51,2.24,6.57,7.9,5.05S1956.53,1254.77,1956.82,1255.44Z" transform="translate(-215.86 -334.48)"/><path class="cls-12" d="M1840.53,1179.4l-43.62-15.86a4.36,4.36,0,0,1-2.87-4.12c0-3.54,0-6.55-.36-7.53-3-8.53-4-20.3-7.42-21.47s-.63,6.8-1.12,12.07-17.07-7.85-19.61-25-4.61,6.78-1.89,12,6.58,12,6,12.47c-.38.28-2.9-6-5.66-11s-3.48-14.44-4.72-13.7c-1,.6-1.18,7.32.09,12.67-1-1.47-1.78-2.18-2.11-1.3-1.42,3.76,2.06,26.26,20.38,41.71,18.5,15.61,65.56,48.61,75.63,44Z" transform="translate(-215.86 -334.48)"/><path class="cls-12" d="M1252.76,747.77s.93-2.6.18-8.24a142.53,142.53,0,0,0-4-18.27c-.71-1.63,21.06-11.4,21.06-11.4s36.07-6.16,41-10.85,9.26-6.9,7.24-2.4c-3.65,8.13-13,20.53-15.14,22.33s-29.53,12.23-30,12.29,1.77,17.77,1.77,17.77Z" transform="translate(-215.86 -334.48)"/><path class="cls-6" d="M1275.41,737.42s-24-1.21-24.12,1.19c-3.32,53.11-2.89,70.48-3.88,71.15-3.35,2.26-59.82-36.55-68.61-38.49-4.21-.92-8.58-.16-12.78.46-10,1.49-6.66.85-11.93,1.74h0l-.45.08,1.18,9.45c12.54,8.84,56.78,160.11,59,159.75,2.43-.4,55.2,6.41,53.79,2.2-.23-.68-38.19-24.89-52.85-64.58-4.92-13.32-8.3-27.9-11.62-40.61,12.06,4.35,59.13,21,65.84,17.23C1289.79,845.41,1275.41,737.42,1275.41,737.42Z" transform="translate(-215.86 -334.48)"/><path class="cls-12" d="M1396.18,1001s52.11,31.69,54.49,38.12c3.42,9.27,45.59-8.45,34.83-9.14-2.47-.16-10.46-1.21-11.13-1.47-3.63-1.42-52.12-47.51-52.12-47.51Z" transform="translate(-215.86 -334.48)"/><path class="cls-1" d="M1506,1027.54l-30.74,1.13s-7.84,8.24-24.53,10.56a39.3,39.3,0,0,0,.57,16.73c.4,1.52,1.21,6.14,2.75,5.85,5.58-1,20.12-6.55,36.79-12,0,0,22.37-7.59,34.68-17.09S1506,1027.54,1506,1027.54Z" transform="translate(-215.86 -334.48)"/><path class="cls-3" d="M1171.43,932.66s35.61,1.72,73.16-11.89c43.44-15.76,91.7-31.28,107.17-24.59,12.46,5.4,98.27,106.71,98.27,106.71l-25.66,23.84-90.77-80.21s-97.74,49.85-121.2,48.39C1159,991.6,1153.29,949.93,1171.43,932.66Z" transform="translate(-215.86 -334.48)"/><polygon class="cls-3" points="991.11 571.46 1030.97 608.83 968.51 636.27 955.57 598.18 991.11 571.46"/><path class="cls-12" d="M1300.47,1087.15s4.72,57.92,4.56,67.84,29.1,36.11,24.6,26.31c-1-2.25-3.91-9.78-4-10.5-.47-3.86,1.3-70.78,1.3-70.78Z" transform="translate(-215.86 -334.48)"/><path class="cls-1" d="M1341.5,1198.16l-15.6-26.5s-11-3-21-16.57a39.09,39.09,0,0,0-14.45,8.45c-1.15,1.07-8.93,8.32-8.17,9.68,2.82,5,15.77,15,29.94,25.89,0,0,19.72,12.38,33.93,18.7S1341.5,1198.16,1341.5,1198.16Z" transform="translate(-215.86 -334.48)"/><path class="cls-2" d="M1343.57,966.75c-14.14-14.83-114.51-18.6-114.51-18.6l-33.74-49.55L1139,943.27s11.81,47.63,17.9,60c8.12,16.49,49,12.52,74,9.3,22.92-3,65.38-3.25,65.38-3.25l.67,126.74s28.61,3,36.32,1.08C1334.11,1136.93,1361.16,985.2,1343.57,966.75Z" transform="translate(-215.86 -334.48)"/><path class="cls-11" d="M1154,773.61l-34,5.94s-.76.37-1,.44c-2.73.85,11.66,100.44,18.58,137.46s13.83,52.08,13.83,52.08,45.51-13.77,59.12-21c5.64-3,17.85-22.62,17.85-22.62s-17-17.94-28.15-49c-8.61-24-20.81-66.86-25.91-75.51C1162.58,781.5,1154,773.61,1154,773.61Z" transform="translate(-215.86 -334.48)"/><path class="cls-12" d="M1117.34,749.21l2.61,30.38s26.73,35.6,37.49,28.92c9-5.61-2.91-33.68-2.91-33.68s-2.44-6.48-5.65-13.86c-2.24-5.17-4.26-10.81-4.67-15.07C1143.22,735.52,1117.34,749.21,1117.34,749.21Z" transform="translate(-215.86 -334.48)"/><path class="cls-9" d="M1135.65,677s13.33,15.71,15.88,30,.67,24.4.67,24.4l-41.43-39.07Z" transform="translate(-215.86 -334.48)"/><path class="cls-8" d="M1154.94,703.6c1.1,5-.34,9.51-3.22,10.15s-6.12-2.85-7.23-7.82.34-9.5,3.22-10.15S1153.83,698.64,1154.94,703.6Z" transform="translate(-215.86 -334.48)"/><path class="cls-12" d="M1099.85,700.65c-.85-.08,4.19,41.67,17.45,50.06s34.44,6.75,39.42-3.88c5.5-11.75-6.19-55-25.3-62.19S1099.85,700.65,1099.85,700.65Z" transform="translate(-215.86 -334.48)"/><path class="cls-9" d="M1093.71,675.12c-8.28,9.2-12,15.65-16.59,30.79-5.59,18.62,11.84,35.16,25.49,40.94s15.81,14.59,15.81,14.59l-.16-5.63c0-4.39-1.56-6.7-3.1-9.17-1.36-2.2-5.81-9.76-7.42-11.7-4.26-5.12-5.11-6.24-4-11.72.89-4.23-1.76-13-.44-19.93l16.78-5.76s10.46-3.87,15.15-10.79C1148.76,666.87,1115.49,650.44,1093.71,675.12Z" transform="translate(-215.86 -334.48)"/><path class="cls-12" d="M1108.42,727.3c2.66,4.33,2.78,9.1.26,10.65s-6.71-.71-9.38-5-2.78-9.1-.26-10.65S1105.75,723,1108.42,727.3Z" transform="translate(-215.86 -334.48)"/><path class="cls-18" d="M977.45,626c2.91,7.81,7.95,20.09,7.95,20.09.13,3.53.83,18.18,1.71,36.14l24.94-13.58s-3.76-29-2.8-30.9c.81-1.62,2.69.05,9.36-12.38,1.92-3.59,1.65-9.57,1.65-9.57s-.39-7.34-2.1-7.83a3.43,3.43,0,0,0-3.91,2.16c-.45,1.33,0,4.25-.39,5.58s-4.05,3.29-5.65,3.4-2.36-21.58-2.36-21.58.16-6.2.38-8.25c.18-1.75,1.14-6.91,1.14-6.91s1-7.45-1.36-7.74c-1.36-.16-4,6.11-5.61,12.62-1.69,7-2.25,14.3-3,14.29-1.7,0-2.21-11.91-2.21-11.91s1-5.6.68-8.14c1.21-3.31,1.56-9.22-1.26-9.37-.53,0-3.3,7.76-3.3,7.76s-.82,5.35-1.37,7.87c-1,4.44-.4,11.2-.81,14.27-.35,2.55-1,1.6-1.3,1.73s-.24-3.34-.39-8.08c-.07-2.39-.67-5.08-.33-7.84a56.17,56.17,0,0,0,.15-8.34c-.28-6.15-4-5.07-4.7.66-.26,2.18-.51,4.56-.76,7-1,9.38.12,18.17-.85,18.36-1.27.25-2.33-15.87-2.33-15.87s-3-8.64-4-.17a72,72,0,0,0,.11,17.91C975.24,609.69,974.54,618.23,977.45,626Z" transform="translate(-215.86 -334.48)"/><path class="cls-6" d="M1119.91,779.61s-34.13,2.43-43.37-.5c-5.6-1.77-53.44-31.78-53.44-31.78l-10.69-94.26-31,1.31s-3.56,106,3.3,116.76c7.1,11.09,76.77,52,92,71.48,8.81,11.24,35.38,163.39,37.88,164.6,17.56,6.65,78,20,76.17,14.88C1140.44,881.75,1119.91,779.61,1119.91,779.61Z" transform="translate(-215.86 -334.48)"/><path class="cls-12" d="M1264.24,721.5s9-5.17,11.4-6.31,10.35-3.63,10.35-3.63,11-14.4,14.21-15.12-5.67,15-5.67,15l-3.89,4.74s6.37-6.92,7.62-7.93,10.06-17.62,12.88-16.93-3.16,12.36-6,18.52-18.64,11.62-18.64,11.62Z" transform="translate(-215.86 -334.48)"/><path class="cls-19" d="M1294.38,692.14c-.23-.26-23.58-25.78-68.22-41.49-63.71-22.43-172.93,2.15-205.35-68.17-5.78-12.54-6-22.36-6.06-22.77a1.14,1.14,0,0,1,2.27-.05h0c0,.1.28,9.84,5.9,22,31.83,68.76,139.93,44.32,204,66.88,32,11.28,58.39,30.17,69.15,42.11A1.14,1.14,0,0,1,1294.38,692.14Z" transform="translate(-215.86 -334.48)"/><path class="cls-19" d="M1293.49,680.09c-.88-1-22.09-23.75-61.87-37.82-43.34-15.4-110-11.63-150.06-29.56-24.33-10.89-36.23-26.49-41.93-37.65-6.19-12.14-6.59-21.58-6.61-22a1.14,1.14,0,0,1,2.27-.08c0,.14.43,9.46,6.42,21.14,5.54,10.8,17.1,25.9,40.78,36.5,39.65,17.74,106.18,14,149.89,29.49,40.31,14.26,61.89,37.45,62.79,38.43a1.14,1.14,0,0,1-.07,1.6A1.15,1.15,0,0,1,1293.49,680.09Z" transform="translate(-215.86 -334.48)"/><path class="cls-19" d="M1292.6,668c-9.45-10.3-29-24.68-55.53-34.14-41.87-15-98.78-14.62-134.55-29.62-25.48-10.69-38-25.79-44.09-36.57-6.6-11.75-7.12-20.86-7.14-21.25a1.14,1.14,0,0,1,2.27-.11h0c0,.09.53,9.06,6.91,20.36,5.89,10.44,18.11,25.07,42.92,35.47,18.07,7.58,41.47,11.15,66.24,14.93,23.4,3.57,47.59,7.26,68.2,14.65,26.92,9.6,46.81,24.25,56.44,34.75A1.13,1.13,0,0,1,1292.6,668Z" transform="translate(-215.86 -334.48)"/><path class="cls-19" d="M1291.71,656c-40.48-44.13-122.47-42.37-168.23-60.15-26.66-10.37-39.89-25-46.29-35.42-7-11.38-7.6-20.22-7.62-20.59a1.13,1.13,0,0,1,2.26-.14c0,.16.66,8.8,7.37,19.68,6.23,10.09,19.11,24.25,45.1,34.35,45.61,17.73,128,15.9,169.08,60.73a1.15,1.15,0,0,1-.07,1.61A1.14,1.14,0,0,1,1291.71,656Z" transform="translate(-215.86 -334.48)"/><path class="cls-5" d="M1115.71,566.47h0c-3.75-3.92-8.5-15.32-11.34-22.14-3.82-9.16-3.36-7.28-4.81-8-3-.6-.48,1.6-24.79,51.3-10.07-13.17-38.94-9.94-38.85,5.37,0,7.91,8.39,15,19.65,14.92,7.82,0,14.85-3.63,17.91-9.13h0c.8-1.45,11.37-23,20.08-40.53,3,11.57,16.63,20,25.12,14.39l2.57-1.69-2.6-1.64A23.07,23.07,0,0,1,1115.71,566.47Z" transform="translate(-215.86 -334.48)"/><path class="cls-5" d="M1272.71,614h0c-4.62-1.32-13.38-8-18.62-11.93-5.54-4.19-6.12-4.63-7.49-4-2.89,1,.11,2.31,3.67,51.06-13.83-5.28-34.39,9.66-27.39,21.51,7.4,12.54,32.26,3,31.94-12.52h0c0-1.48-1.58-26.22-2.7-43.25,7.68,7.24,21.73,11.06,25.77,2.9l1.36-2.76C1275.69,614.69,1277.21,615.3,1272.71,614Z" transform="translate(-215.86 -334.48)"/><path class="cls-5" d="M1197.33,614.33c-.06-2.06-1.56-24.53-3.38-52.12-29,3.08-28,3.36-54.7-.89.9,14.18,1.86,28.42,2.68,39.87-14-5.35-31.47,11.09-24.56,22.79,7.46,12.63,30.87-.62,30.56-16.08,0,0-1.57-12.33-2.91-32l45.15.42c.41,6.08.91,18,1.77,29.7-14-5.32-33.47,9.08-26.53,20.83,3.82,6.47,13.75,7.7,22.14,2.74,6.07-3.58,9.92-9.57,9.81-15.26Z" transform="translate(-215.86 -334.48)"/><path class="cls-20" d="M1782.17,483.47h0c-4.57,1.45-15.55.76-22.1.34-6.94-.43-7.66-.48-8.48.76-1.88,2.4-1.7,2.36,28.19,41-14.44,3.25-20.26,26.55-7.88,32.57,13.09,6.36,28.56-15.31,19.71-28.09h0c-.84-1.21-13.83-18-24.18-31.6,10.41,1.78,22.26-5.74,21.13-14.77l-.39-3.06C1785.05,482.4,1786.65,482.08,1782.17,483.47Z" transform="translate(-215.86 -334.48)"/><path class="cls-11" d="M1195.44,394.85c.22-2.05,1.77-24.51,3.7-52.1-29.15-.87-28.2-.45-54.08-8.27-1,14.17-2,28.41-2.73,39.87-13.19-7.21-32.68,6.73-27.42,19.26,5.68,13.52,31.57,7.27,33.34-8.09h0c.15-1.41.93-13.9,2.26-33.57l40.7,6c-.41,6.08-.93,14.05-1.66,25.73-13.12-7.16-32.7,6.68-27.42,19.26,2.91,6.92,12.59,9.49,21.57,5.71,6.5-2.73,11.12-8.15,11.78-13.8Z" transform="translate(-215.86 -334.48)"/><polygon class="cls-21" points="456.06 222.09 471.09 234.28 488.83 225.64 504.7 240.49 520.75 225.46 539.45 241.47 555.94 229.45 576.44 241.91 571.73 249.67 556.39 240.35 539 253.04 521.02 237.65 504.7 252.93 487.19 236.54 469.87 244.98 455.94 233.69 445.72 241.61 440.16 234.43 456.06 222.09"/><path class="cls-6" d="M1829.73,877.61a16.3,16.3,0,0,0,1.47,4.17,15.35,15.35,0,0,1,11.26-4c.61-1.92,1.22-3.85,1.84-5.77C1840,871.84,1833.64,872.55,1829.73,877.61Z" transform="translate(-215.86 -334.48)"/><path class="cls-6" d="M1841.27,903.81c2.66-7.75,5.39-16,8.1-24.14l-.53-.31a16.86,16.86,0,0,0-2.42-1,13.39,13.39,0,0,0-2.84-.53l-1.12,0c-2.85,8.91-5.6,17.74-8.17,25.81A21.55,21.55,0,0,0,1841.27,903.81Z" transform="translate(-215.86 -334.48)"/><path class="cls-6" d="M1821.76,937.63s-3.88,6.65-9.24,6c0,0-6.15-.57-2.8-6.75,0,0,.17-.5.17-.52a2.22,2.22,0,0,0-1.3-2.77,2.52,2.52,0,0,0-3,1.2,6.56,6.56,0,0,0-1,3.27c-.85,10.05,11.23,13.27,18.25,7.09,4.39-3.81,9.88-17,15.75-33.44a41.19,41.19,0,0,1-6.52-.88C1827.67,924.15,1824.06,934.38,1821.76,937.63Z" transform="translate(-215.86 -334.48)"/><path class="cls-6" d="M1834.29,903.62c-.79,2.48-1.56,4.89-2.31,7.21a41.19,41.19,0,0,0,6.52.88c.91-2.56,1.84-5.2,2.77-7.9A21.55,21.55,0,0,1,1834.29,903.62Z" transform="translate(-215.86 -334.48)"/><path class="cls-6" d="M1844.3,872a26,26,0,0,1,4.48.58,22.08,22.08,0,0,1,2.64.89c2.35-7,4.68-13.92,6.94-20.3-3.2,1-6.14,2-8.84,3C1847.77,861.38,1846,866.7,1844.3,872Z" transform="translate(-215.86 -334.48)"/><path class="cls-6" d="M1853.22,845.64c-1.23,3.41-2.46,7-3.7,10.6,2.7-1,5.64-2.06,8.84-3,1.3-3.65,2.57-7.13,3.82-10.38C1859.22,843.85,1856.23,844.76,1853.22,845.64Z" transform="translate(-215.86 -334.48)"/><path class="cls-6" d="M1819.3,886.61c-.43-3.38-.3-18.6,30.22-30.37,1.24-3.64,2.47-7.19,3.7-10.6-3.55,1-7.11,2.05-10.61,3.2-8.45,2.76-17.16,6.17-23.67,12.15-8.48,7.79-10.65,19.32-8.11,30a25.13,25.13,0,0,0,9.06,14.49,31.24,31.24,0,0,0,12.09,5.33c.75-2.32,1.52-4.73,2.31-7.21C1827.14,902.21,1820.62,896.93,1819.3,886.61Z" transform="translate(-215.86 -334.48)"/><path class="cls-6" d="M1888.65,824.46c-.94-8-9.17-20.53-19.28-12.06-4.58,3.83-10.26,16.89-16.15,33.24,3-.88,6-1.79,9-2.81,6.37-16.64,12-27.23,15.81-22.91a11.05,11.05,0,0,1,1.39,11.48c-2,4.73-7.17,7.46-11.84,9.41-1.76.74-3.56,1.4-5.36,2-1.25,3.25-2.52,6.73-3.82,10.38,1.38-.42,2.8-.84,4.28-1.25,9.28-2.55,18.7-8.43,22.36-13.72A20.8,20.8,0,0,0,1888.65,824.46Z" transform="translate(-215.86 -334.48)"/><path class="cls-6" d="M1851.24,881a14.08,14.08,0,0,1,3.52,4.38c-.54-1.06,3.6,4.87-1.56,11.92-2.61,3.57-7.08,5.87-11.93,6.53-.93,2.7-1.86,5.34-2.77,7.9l1,0c25.69.85,31.22-30.42,11.87-38.25-.68,2-1.37,4.1-2.05,6.16A11.81,11.81,0,0,1,1851.24,881Z" transform="translate(-215.86 -334.48)"/><path class="cls-6" d="M1844.3,872c-.62,1.92-1.23,3.85-1.84,5.77l1.12,0a13.39,13.39,0,0,1,2.84.53,16.86,16.86,0,0,1,2.42,1l.53.31c.68-2.06,1.37-4.12,2.05-6.16a22.08,22.08,0,0,0-2.64-.89A26,26,0,0,0,1844.3,872Z" transform="translate(-215.86 -334.48)"/><path class="cls-6" d="M1839.31,884.34c-1,4.45-4.35,7.5-7.52,6.8s-5-4.88-4-9.33,4.34-7.49,7.51-6.79S1840.29,879.89,1839.31,884.34Z" transform="translate(-215.86 -334.48)"/><path class="cls-6" d="M1816.21,939c-1,4.45-4.35,7.49-7.52,6.79s-5-4.87-4-9.32,4.35-7.5,7.52-6.8S1817.19,934.54,1816.21,939Z" transform="translate(-215.86 -334.48)"/><rect class="cls-3" x="586.63" y="1179.59" width="532.69" height="532.69" rx="209.17" transform="translate(2083.05 258.48) rotate(90)"/><path class="cls-2" d="M715.07,1089.68c.63-20.69-7-224.05,44.43-384.87,35-109.83,74-157.29,120.76-195.71,2.13-1.67,4.22-3.37,6.36-5s4.3-3.26,6.49-4.81l6.57-4.65C1052.12,388.83,1361,384,1490.62,543.79c47.36,57.48,78.74,150.16,92.46,224,23.9,128.34,17.16,268.74,13.82,406.93h-62.49c-11.23-171.79,7.15-387.58-72.17-545.82l-3-5.8c-3.52-4.11-45.8-107.12-182.38-156.5-172.26-58.21-349.27,26.26-408.58,182.76-54.09,138.75-48.9,301.39-49,440.32Z" transform="translate(-215.86 -334.48)"/><rect class="cls-2" x="452.71" y="650.02" width="190.1" height="274.15"/><path class="cls-3" d="M858.68,1141.92a218.55,218.55,0,0,0-42.32-4.12H718.1a217.88,217.88,0,0,0-49.53,5.67v115.18H858.68Z" transform="translate(-215.86 -334.48)"/><path class="cls-20" d="M848,514.94c4.42,8.28,13.59,12.08,20.67,8.49s9.5-13.55,5.15-22.1-13.69-12.52-20.88-8.86a12.51,12.51,0,0,0-4.59,4l-11.42-24.55,41.9-7.35,19.52,42h0a1,1,0,0,1,.07.15c4.34,8.55,13.69,12.52,20.88,8.87s9.5-13.55,5.16-22.1-13.69-12.52-20.88-8.86a12.58,12.58,0,0,0-4.59,4l-20.91-45a3.29,3.29,0,0,0-3.47-2l-52.18,10.57c-1.74.36-2.54,2.44-1.65,4.34L848,515Z" transform="translate(-215.86 -334.48)"/><rect class="cls-2" x="509.11" y="1200.68" width="532.69" height="490.5" rx="200.71" transform="translate(2005.53 336) rotate(90)"/><rect class="cls-3" x="606.88" y="1288.01" width="270.63" height="270.63" rx="106.27" transform="translate(1949.66 346.65) rotate(90)"/><rect class="cls-2" x="556.78" y="1288.01" width="270.63" height="270.63" rx="106.27" transform="translate(1899.56 396.75) rotate(90)"/><path class="cls-18" d="M2126.38,932.62c3.1,8.32,8.47,21.42,8.47,21.42.15,3.76.89,19.4,1.83,38.55l26.6-14.49s-4-30.92-3-33c.86-1.73,2.87.06,10-13.2,2.05-3.83,1.77-10.2,1.77-10.2s-.42-7.84-2.25-8.36a3.67,3.67,0,0,0-4.17,2.3c-.47,1.42.06,4.53-.41,6s-4.32,3.52-6,3.64-2.52-23-2.52-23,.18-6.61.41-8.79c.2-1.87,1.22-7.38,1.22-7.38s1-7.94-1.45-8.25c-1.45-.18-4.3,6.52-6,13.46-1.81,7.48-2.41,15.25-3.18,15.24-1.81,0-2.36-12.71-2.36-12.71s1.09-6,.73-8.67c1.28-3.53,1.66-9.84-1.35-10-.56,0-3.52,8.28-3.52,8.28s-.88,5.7-1.47,8.39c-1,4.74-.41,12-.86,15.22-.37,2.72-1.11,1.71-1.38,1.85s-.26-3.57-.42-8.62c-.08-2.54-.71-5.41-.35-8.36a61.09,61.09,0,0,0,.16-8.9c-.29-6.55-4.31-5.4-5,.71-.27,2.33-.54,4.86-.81,7.43-1,10,.14,19.39-.9,19.59-1.36.26-2.49-16.93-2.49-16.93s-3.21-9.21-4.25-.19a77,77,0,0,0,.11,19.11C2124,915.18,2123.27,924.29,2126.38,932.62Z" transform="translate(-215.86 -334.48)"/><path class="cls-22" d="M2295.34,1027.52s-13.15-13.87-23.73,3c0,0-8.16-4.58-13.88,3.57,0,0-14.73-4.43-18.3,17.59,0,0-7.58-1.43-8.58,7.58a22.26,22.26,0,0,0,3.58,15s-4.26,3.2-2.33,11.48c1.65,7,7.47,8.11,7.47,8.11s1.58,11.87,6.72,15.45,12.16,1.86,12.16,1.86,1.86,6.43,7.86,5.86,13.45-6.29,20.17-3.72,24.16-.14,24.16-.14,19.59-8.72,13.73-28.74c0,0,10.3-9.3,1.29-20.45,0,0,6.58-17.45-6.44-27.74S2295.34,1027.52,2295.34,1027.52Z" transform="translate(-215.86 -334.48)"/><path class="cls-12" d="M2409.2,914l1.65,26.67-5.92,45.41-25.48.25s5.68-28.7,1.77-35.51c-3.07-5.37-6.86-13.66-7.15-16.66C2373.1,923.91,2409.2,914,2409.2,914Z" transform="translate(-215.86 -334.48)"/><path class="cls-2" d="M2376.29,928.71l10.86,20.67c3.22,6.07,10.39,5.87,13.23-.43l4.28-12S2386.37,921.36,2376.29,928.71Z" transform="translate(-215.86 -334.48)"/><path class="cls-1" d="M2298.39,889.19l54.41,5.56a8.49,8.49,0,0,1,6.57,4.29l26.19,47.22a8.54,8.54,0,0,0,15.18-.61l22.19-49.16a8.44,8.44,0,0,1,6.18-4.81l53.77-9.9a8.28,8.28,0,0,0,4.1-14.38l-40.7-35.94a8.25,8.25,0,0,1-2.74-7.26l7-53.34a8.45,8.45,0,0,0-12.64-8.28l-47.35,26.95a8.55,8.55,0,0,1-7.87.32l-49.43-23.07c-6.34-2.95-13.38,2.52-11.91,9.27l11.44,52.6a8.24,8.24,0,0,1-2.13,7.46l-37.58,39.08A8.29,8.29,0,0,0,2298.39,889.19Z" transform="translate(-215.86 -334.48)"/><path class="cls-12" d="M2204.75,1608.61s-14.33,17.77-17.9,20,1.59,28,11.32,29.7c5.48,1,8.24-6.65,8.24-6.65l-1.29-5.87,20.48-21.09Z" transform="translate(-215.86 -334.48)"/><path class="cls-12" d="M2278.58,1613s-11.94,19.45-15.2,22.07,5.15,27.57,15,28c5.56.25,7.33-7.65,7.33-7.65l-2-5.65,17.62-23.54Z" transform="translate(-215.86 -334.48)"/><path class="cls-22" d="M2264.09,1634.31s6.87,8.75,10.61,12.23a125.06,125.06,0,0,0,11,8.89s7,12.72,8.93,17.16c4.26,9.88,9,20.9,8.36,26.43-.22,1.78-4.21,3.66-7.54,2.63-13.84-4.25-49.24-36.63-53.71-45.32C2236.61,1646.3,2264.09,1634.31,2264.09,1634.31Z" transform="translate(-215.86 -334.48)"/><path class="cls-10" d="M2365.13,1338c-1.28-3.6-2.52-6.93-3.71-10.06-14.72,3.21-31.35,6.75-48.46,10.39l-2.09,62.71c0-4.84,12.87,100,12.87,100s-30.25,72.85-53,115.75c9.34,11.65,11.8,13.3,25.32,21.24,35.29-42.31,80.39-116.89,82.31-129.77C2379.49,1500.88,2380.48,1381.17,2365.13,1338Z" transform="translate(-215.86 -334.48)"/><path class="cls-20" d="M2233.71,1356.13c4.5,48.86,14.5,142.28,13.67,149.79-2.52,9.37-45.19,95.81-53.2,108.39,6.36,9.58,15.73,18.59,26.31,21.45,2.09.57,74.18-102.59,78.18-110.88,4.53-9.38,12.07-60.52,12.2-123.84l2.09-62.71C2284.45,1344.41,2258.24,1350.37,2233.71,1356.13Z" transform="translate(-215.86 -334.48)"/><path class="cls-2" d="M2327.32,1133.4l-33.56,4.6s-26.89.66-30.22.66-24.4,122.4-30.5,168.46-1.38,54.22-1.38,54.22,42.54,9.57,74,6.78c32.72-2.9,69.55-20.57,69.55-20.57s-26.37-86.49-31.91-114.13S2327.32,1133.4,2327.32,1133.4Z" transform="translate(-215.86 -334.48)"/><path class="cls-5" d="M2408.68,985.13s2.15,91.25-1.29,98.23c-5,10.16-61.35,82.16-61.35,82.16S2373,1278.15,2384.27,1317c1.14,3.92,6.19,29.22,6.19,31.69,0,5.47-23.81,12.41-26.64,12-2.53-.37-23.3-107.51-36.57-159.94a149.78,149.78,0,0,0-22.75-49.53l-9.22-13.11,70.78-70.94s8.73-79,8.73-85.52C2374.79,980,2405.24,978.69,2408.68,985.13Z" transform="translate(-215.86 -334.48)"/><path class="cls-5" d="M2264.76,1138.5l-88.27-89.94s-12.3-85-13.17-88.25-22.78-4.85-31.61-5.71c-2.84-.27,1.48,90.59,5.7,105.82,5,18,71.71,100,71.71,100s12,44.41,9.08,77c-4.78,54.1-17.68,128.51-15.37,130.84,14.35,9,69.4,10,72.89,4.39C2314.2,1310.61,2264.76,1138.5,2264.76,1138.5Z" transform="translate(-215.86 -334.48)"/><path class="cls-12" d="M2293.12,1121.69l2.38,17.67s5.34,25.46-1.53,30.36-29.18-31.08-29.18-31.08l2.35-44.77Z" transform="translate(-215.86 -334.48)"/><path class="cls-2" d="M2266.38,1108.38c5.67,15.27,19.17,24.65,28.76,28.29l-2-15-26-27.82Z" transform="translate(-215.86 -334.48)"/><path class="cls-22" d="M2230.62,1063.44c0,6.82,3.88,12.35,8.66,12.35s8.66-5.53,8.66-12.35-3.88-12.35-8.66-12.35S2230.62,1056.62,2230.62,1063.44Z" transform="translate(-215.86 -334.48)"/><path class="cls-22" d="M2256.6,1036.9c0,3.92,4.72,7.1,10.54,7.1s10.53-3.18,10.53-7.1-4.71-7.09-10.53-7.09S2256.6,1033,2256.6,1036.9Z" transform="translate(-215.86 -334.48)"/><path class="cls-12" d="M2283,1046.83a23.61,23.61,0,0,1,30.9,18.82,178,178,0,0,1,1.92,22.67c.37,20.63-10.31,40.72-19.68,40.72s-35.27-13.36-36.2-42.66C2259.36,1068.29,2268.39,1051.86,2283,1046.83Z" transform="translate(-215.86 -334.48)"/><path class="cls-12" d="M2266.84,1088.7c0,4.55-3,8.24-6.74,8.24s-6.74-3.69-6.74-8.24,3-8.24,6.74-8.24S2266.84,1084.15,2266.84,1088.7Z" transform="translate(-215.86 -334.48)"/><path class="cls-22" d="M2323.6,1036.57c9.68,7.66,13.07,19.31,7.58,26s-17.8,5.92-27.48-1.75-13.07-19.31-7.57-26S2313.92,1028.9,2323.6,1036.57Z" transform="translate(-215.86 -334.48)"/><path class="cls-22" d="M2298.29,1042.85c0,3.34-4,6-9,6s-9-2.7-9-6,4-6,9-6S2298.29,1039.52,2298.29,1042.85Z" transform="translate(-215.86 -334.48)"/><path class="cls-22" d="M2325,1068.5a7.67,7.67,0,1,1-7.67-7.76A7.71,7.71,0,0,1,2325,1068.5Z" transform="translate(-215.86 -334.48)"/><path class="cls-12" d="M2381.13,940.5l4.76-7.57s8.26-7.29,6.09-10.2c-3.62-4.85-16.19,6.91-16.19,6.91S2374.39,940.18,2381.13,940.5Z" transform="translate(-215.86 -334.48)"/><path class="cls-12" d="M2410.85,940.66s2.22-18.06,1.79-18.6c-2.39-3-10-8-12.76-6.86s3.65,10.72,3.65,10.72-4,.84-4.85,4.4S2410.85,940.66,2410.85,940.66Z" transform="translate(-215.86 -334.48)"/><path class="cls-22" d="M2187.66,1627.89s5.68,9.56,9,13.49a126,126,0,0,0,9.8,10.23s5.32,13.51,6.66,18.16c3,10.34,6.32,22.83,4.93,28.23-.45,1.73-4.26,5-7.41,3-12.14-7.91-44.57-44.93-47.89-54.12C2158.87,1636.28,2187.66,1627.89,2187.66,1627.89Z" transform="translate(-215.86 -334.48)"/></svg>