<?xml version="1.0" encoding="UTF-8"?>
<!DOCTYPE svg PUBLIC "-//W3C//DTD SVG 1.1//EN" "http://www.w3.org/Graphics/SVG/1.1/DTD/svg11.dtd">
<!-- Creator: CorelDRAW 2020 (64-Bit) -->
<svg xmlns="http://www.w3.org/2000/svg" xml:space="preserve" width="210mm" height="297mm" version="1.1" style="shape-rendering:geometricPrecision; text-rendering:geometricPrecision; image-rendering:optimizeQuality; fill-rule:evenodd; clip-rule:evenodd"
viewBox="0 0 21000 29700"
 xmlns:xlink="http://www.w3.org/1999/xlink"
 xmlns:xodm="http://www.corel.com/coreldraw/odm/2003">
 <defs>
  <style type="text/css">
   <![CDATA[
    .str0 {stroke:#4CB05D;stroke-width:150.28;stroke-miterlimit:10}
    .fil3 {fill:none}
    .fil0 {fill:none;fill-rule:nonzero}
    .fil2 {fill:#FEFEFE;fill-rule:nonzero}
    .fil1 {fill:url(#id1);fill-rule:nonzero}
   ]]>
  </style>
   <clipPath id="id0">
    <path d="M10492.87 9162.55c3279.45,0 5937.97,2658.52 5937.97,5937.97 0,3279.45 -2658.52,5937.97 -5937.97,5937.97 -3279.45,0 -5937.97,-2658.52 -5937.97,-5937.97 0,-3279.45 2658.52,-5937.97 5937.97,-5937.97z"/>
   </clipPath>
  <linearGradient id="id1" gradientUnits="userSpaceOnUse" x1="5076.22" y1="14633.72" x2="15070" y2="14633.72">
   <stop offset="0" style="stop-opacity:1; stop-color:#64C474"/>
   <stop offset="0.670588" style="stop-opacity:1; stop-color:#4DAF5D"/>
   <stop offset="1" style="stop-opacity:1; stop-color:#359946"/>
  </linearGradient>
 </defs>
 <g id="Capa_x0020_1">
  <metadata id="CorelCorpID_0Corel-Layer"/>
  <g>
  </g>
  <g style="clip-path:url(#id0)">
   <g>
    <path class="fil0 str0" d="M14416.52 12633.64c-791.34,-368.82 -705.58,-552.88 -1496.93,-921.75 -791.5,-368.87 -877.27,-184.77 -1668.77,-553.64 -791.5,-368.92 -705.68,-552.98 -1497.19,-921.85 -563.3,-262.58 -1166.73,-103.06 -1695.92,41.02 -557.04,151.64 -1159.42,340.32 -1492.32,812.05 -316.17,448.07 -304,1060.07 -249.7,1679.19 76.26,869.74 -126.04,887.48 -49.78,1757.28 76.28,869.92 278.63,852.12 354.88,1722.04 76.3,869.9 -126.03,887.64 -49.75,1757.49 54.31,619.11 494.13,1061.99 883.49,1448.19 409.9,406.6 874.46,833.98 1449.39,886.34 546.22,49.85 1070.1,-266.78 1579.09,-623.33 715.11,-500.93 831.69,-334.6 1546.79,-835.53 715.16,-500.99 598.66,-667.31 1313.87,-1168.35 715.15,-500.97 831.73,-334.65 1546.94,-835.68 508.99,-356.56 672.56,-958.88 812.39,-1489.22 147.19,-558.24 285.01,-1174.26 42.93,-1698.38 -230.01,-497.93 -766.1,-793.31 -1329.41,-1055.87 -791.34,-368.82 -705.58,-552.88 -1496.93,-921.75 -791.5,-368.87 -877.27,-184.77 -1668.77,-553.64 -791.5,-368.92 -705.68,-552.98 -1497.19,-921.85 -563.3,-262.58 -1166.73,-103.06 -1695.92,41.02 -557.04,151.64 -1159.42,340.32 -1492.32,812.05 -316.17,448.07 -304,1060.07 -249.7,1679.19 76.26,869.74 -126.04,887.48 -49.78,1757.28 76.28,869.92 278.63,852.12 354.88,1722.04 76.3,869.9 -126.03,887.64 -49.75,1757.49 54.31,619.11 494.13,1061.99 883.49,1448.19 409.9,406.6 874.46,833.98 1449.39,886.34 546.22,49.85 1070.1,-266.78 1579.09,-623.33 715.11,-500.93 831.69,-334.6 1546.79,-835.53 715.16,-500.99 598.66,-667.31 1313.87,-1168.35 715.15,-500.97 831.73,-334.65 1546.94,-835.68 508.99,-356.56 672.56,-958.88 812.39,-1489.22 147.19,-558.24 285.01,-1174.26 42.93,-1698.38 -230.01,-497.93 -766.1,-793.31 -1329.41,-1055.87z"/>
    <path class="fil1" d="M14983.4 16525.6l-1355.96 -5060.56c-491.08,-1832.59 -2781.71,-2446.35 -4123.24,-1104.82l-3704.62 3704.62c-1341.51,1341.48 -727.72,3632.16 1104.83,4123.18l5060.57 1356c1832.53,491.02 3509.42,-1185.87 3018.42,-3018.42l-1355.96 -5060.56c-491.08,-1832.59 -2781.71,-2446.35 -4123.24,-1104.82l-3704.62 3704.62c-1341.51,1341.48 -727.72,3632.16 1104.83,4123.18l5060.57 1356c1832.53,491.02 3509.42,-1185.87 3018.42,-3018.42z"/>
    <path class="fil2" d="M11881.31 14591.65c-753.03,-447.08 -2012.09,-494.17 -2729.8,-270.63 -117.68,35.31 -235.41,-35.28 -270.69,-141.18 -35.31,-117.68 35.28,-235.31 141.23,-270.64 835.39,-247.13 2212.13,-200.04 3082.84,317.68 105.91,58.86 141.17,200.09 82.41,305.95 -58.86,82.36 -200.04,117.68 -305.99,58.82zm-23.5 658.94c-58.81,82.41 -164.72,117.67 -247.09,58.86 -635.44,-388.31 -1600.29,-505.99 -2341.58,-270.63 -94.14,23.49 -200.05,-23.54 -223.6,-117.68 -23.49,-94.14 23.55,-200.04 117.69,-223.58 858.93,-258.82 1917.96,-129.46 2647.54,317.72 70.54,35.32 105.86,152.94 47.04,235.31zm-282.41 647.17c-47.09,70.64 -129.4,94.13 -200.03,47.09 -552.99,-341.22 -1247.25,-411.86 -2070.97,-223.59 -82.35,23.54 -152.89,-35.27 -176.49,-105.86 -23.49,-82.41 35.32,-153 105.91,-176.49 894.3,-200.05 1670.87,-117.68 2282.72,258.8 82.41,35.32 94.18,129.46 58.86,200.05zm-1082.51 -3400.57c-1299.7,0 -2353.36,1053.66 -2353.36,2353.36 0,1299.75 1053.66,2353.31 2353.36,2353.31 1299.69,0 2353.31,-1053.56 2353.31,-2353.31 0,-1299.7 -1053.62,-2353.36 -2353.31,-2353.36z"/>
   </g>
  </g>
  <path class="fil3" d="M10492.87 9162.55c3279.45,0 5937.97,2658.52 5937.97,5937.97 0,3279.45 -2658.52,5937.97 -5937.97,5937.97 -3279.45,0 -5937.97,-2658.52 -5937.97,-5937.97 0,-3279.45 2658.52,-5937.97 5937.97,-5937.97z"/>
 </g>
</svg>
